<svg width="97" height="25" viewBox="0 0 97 25" fill="none" xmlns="http://www.w3.org/2000/svg">
<g clip-path="url(#clip0_104_326)">
<path d="M39.7725 14.8478H36.9365V6.84778H39.7959C40.6006 6.84778 41.2933 7.00793 41.874 7.32825C42.4548 7.64596 42.9014 8.10299 43.2139 8.69934C43.529 9.29569 43.6865 10.0092 43.6865 10.84C43.6865 11.6733 43.529 12.3894 43.2139 12.9884C42.9014 13.5874 42.4521 14.047 41.8662 14.3673C41.2829 14.6876 40.585 14.8478 39.7725 14.8478ZM38.6279 13.3986H39.7021C40.2021 13.3986 40.6227 13.31 40.9639 13.1329C41.3076 12.9532 41.5654 12.6759 41.7373 12.3009C41.9118 11.9233 41.999 11.4363 41.999 10.84C41.999 10.2488 41.9118 9.76575 41.7373 9.39075C41.5654 9.01575 41.3089 8.73971 40.9678 8.56262C40.6266 8.38554 40.2061 8.297 39.7061 8.297H38.6279V13.3986ZM44.9395 14.8478V6.84778H50.3301V8.24231H46.6309V10.1486H50.0527V11.5431H46.6309V13.4532H50.3457V14.8478H44.9395ZM56.0146 9.14856C55.9834 8.83346 55.8493 8.58866 55.6123 8.41418C55.3753 8.23971 55.0537 8.15247 54.6475 8.15247C54.3714 8.15247 54.1383 8.19153 53.9482 8.26965C53.7581 8.34517 53.6123 8.45064 53.5107 8.58606C53.4118 8.72148 53.3623 8.87512 53.3623 9.047C53.3571 9.19023 53.387 9.31523 53.4521 9.422C53.5199 9.52877 53.6123 9.62122 53.7295 9.69934C53.8467 9.77486 53.9821 9.84127 54.1357 9.89856C54.2894 9.95325 54.4535 10.0001 54.6279 10.0392L55.3467 10.2111C55.6956 10.2892 56.016 10.3934 56.3076 10.5236C56.5993 10.6538 56.8519 10.8139 57.0654 11.004C57.279 11.1941 57.4443 11.4181 57.5615 11.6759C57.6813 11.9337 57.7425 12.2293 57.7451 12.5626C57.7425 13.0522 57.6175 13.4767 57.3701 13.8361C57.1253 14.1928 56.7712 14.4702 56.3076 14.6681C55.8467 14.8634 55.2907 14.9611 54.6396 14.9611C53.9938 14.9611 53.4313 14.8621 52.9521 14.6642C52.4756 14.4663 52.1032 14.1733 51.835 13.7853C51.5693 13.3947 51.43 12.9116 51.417 12.3361H53.0537C53.0719 12.6043 53.1488 12.8282 53.2842 13.0079C53.4222 13.185 53.6058 13.3191 53.835 13.4103C54.0667 13.4988 54.3285 13.5431 54.6201 13.5431C54.9066 13.5431 55.1553 13.5014 55.3662 13.4181C55.5798 13.3348 55.7451 13.2189 55.8623 13.0704C55.9795 12.922 56.0381 12.7514 56.0381 12.5587C56.0381 12.379 55.9847 12.228 55.8779 12.1056C55.7738 11.9832 55.6201 11.879 55.417 11.7931C55.2165 11.7072 54.9704 11.629 54.6787 11.5587L53.8076 11.34C53.1331 11.1759 52.6006 10.9194 52.21 10.5704C51.8193 10.2215 51.6253 9.75142 51.6279 9.16028C51.6253 8.6759 51.7542 8.25273 52.0146 7.89075C52.2777 7.52877 52.6383 7.24622 53.0967 7.04309C53.555 6.83997 54.0758 6.7384 54.6592 6.7384C55.2529 6.7384 55.7712 6.83997 56.2139 7.04309C56.6592 7.24622 57.0055 7.52877 57.2529 7.89075C57.5003 8.25273 57.6279 8.672 57.6357 9.14856H56.0146ZM58.5781 8.24231V6.84778H65.1484V8.24231H62.6992V14.8478H61.0273V8.24231H58.5781ZM66.6318 14.8478H64.8193L67.5811 6.84778H69.7607L72.5186 14.8478H70.7061L68.7021 8.6759H68.6396L66.6318 14.8478ZM66.5186 11.7032H70.7998V13.0236H66.5186V11.7032ZM76.125 12.0665H77.5625L78.2852 12.9962L78.9961 13.8243L80.3359 15.504H78.7578L77.8359 14.3712L77.3633 13.6993L76.125 12.0665ZM80.457 10.8478C80.457 11.7202 80.2917 12.4624 79.9609 13.0743C79.6328 13.6863 79.1849 14.1538 78.6172 14.4767C78.0521 14.797 77.4167 14.9572 76.7109 14.9572C76 14.9572 75.362 14.7957 74.7969 14.4728C74.2318 14.1499 73.7852 13.6824 73.457 13.0704C73.1289 12.4585 72.9648 11.7176 72.9648 10.8478C72.9648 9.97538 73.1289 9.23319 73.457 8.62122C73.7852 8.00924 74.2318 7.54309 74.7969 7.22278C75.362 6.89986 76 6.7384 76.7109 6.7384C77.4167 6.7384 78.0521 6.89986 78.6172 7.22278C79.1849 7.54309 79.6328 8.00924 79.9609 8.62122C80.2917 9.23319 80.457 9.97538 80.457 10.8478ZM78.7422 10.8478C78.7422 10.2827 78.6576 9.80611 78.4883 9.41809C78.3216 9.03007 78.0859 8.7358 77.7812 8.53528C77.4766 8.33476 77.1198 8.2345 76.7109 8.2345C76.3021 8.2345 75.9453 8.33476 75.6406 8.53528C75.3359 8.7358 75.099 9.03007 74.9297 9.41809C74.763 9.80611 74.6797 10.2827 74.6797 10.8478C74.6797 11.4129 74.763 11.8894 74.9297 12.2775C75.099 12.6655 75.3359 12.9598 75.6406 13.1603C75.9453 13.3608 76.3021 13.4611 76.7109 13.4611C77.1198 13.4611 77.4766 13.3608 77.7812 13.1603C78.0859 12.9598 78.3216 12.6655 78.4883 12.2775C78.6576 11.8894 78.7422 11.4129 78.7422 10.8478ZM86.6514 6.84778H88.3428V12.0431C88.3428 12.6264 88.2035 13.1368 87.9248 13.5743C87.6488 14.0118 87.262 14.353 86.7646 14.5978C86.2673 14.84 85.6878 14.9611 85.0264 14.9611C84.3623 14.9611 83.7816 14.84 83.2842 14.5978C82.7868 14.353 82.4001 14.0118 82.124 13.5743C81.848 13.1368 81.71 12.6264 81.71 12.0431V6.84778H83.4014V11.8986C83.4014 12.2032 83.4678 12.4741 83.6006 12.7111C83.736 12.948 83.9261 13.1342 84.1709 13.2697C84.4157 13.4051 84.7008 13.4728 85.0264 13.4728C85.3545 13.4728 85.6396 13.4051 85.8818 13.2697C86.1266 13.1342 86.3154 12.948 86.4482 12.7111C86.5837 12.4741 86.6514 12.2032 86.6514 11.8986V6.84778ZM89.7344 14.8478V6.84778H95.125V8.24231H91.4258V10.1486H94.8477V11.5431H91.4258V13.4532H95.1406V14.8478H89.7344Z" fill="#BEC0C3"/>
<path d="M37.6074 15.5742H37.4074V15.7742H37.6074V15.5742ZM37.6074 7.57422V7.37422H37.4074V7.57422H37.6074ZM42.5449 8.05469L42.4483 8.22982L42.4489 8.23015L42.5449 8.05469ZM43.8848 9.42578L43.7076 9.51861L43.7079 9.51922L43.8848 9.42578ZM43.8848 13.7148L43.7078 13.6217L43.7074 13.6223L43.8848 13.7148ZM42.5371 15.0937L42.4412 14.9183L42.4408 14.9184L42.5371 15.0937ZM39.2988 14.125H39.0988V14.325H39.2988V14.125ZM41.6348 13.8594L41.7269 14.0369L41.7274 14.0366L41.6348 13.8594ZM42.4082 13.0273L42.2266 12.9435L42.2264 12.944L42.4082 13.0273ZM42.4082 10.1172L42.2264 10.2005L42.2269 10.2016L42.4082 10.1172ZM41.6387 9.28906L41.7308 9.11155L41.7308 9.11155L41.6387 9.28906ZM39.2988 9.02344V8.82344H39.0988V9.02344H39.2988ZM40.4434 15.3742H37.6074V15.7742H40.4434V15.3742ZM37.8074 15.5742V7.57422H37.4074V15.5742H37.8074ZM37.6074 7.77422H40.4668V7.37422H37.6074V7.77422ZM40.4668 7.77422C41.2449 7.77422 41.9029 7.92896 42.4483 8.22981L42.6415 7.87956C42.0255 7.53979 41.2981 7.37422 40.4668 7.37422V7.77422ZM42.4489 8.23015C42.9944 8.52858 43.4131 8.95657 43.7076 9.51861L44.0619 9.33295C43.7314 8.70229 43.2569 8.21621 42.6409 7.87923L42.4489 8.23015ZM43.7079 9.51922C44.0047 10.0809 44.1574 10.7608 44.1574 11.5664H44.5574C44.5574 10.7105 44.395 9.96342 44.0616 9.33235L43.7079 9.51922ZM44.1574 11.5664C44.1574 12.3747 44.0047 13.0574 43.7078 13.6217L44.0618 13.808C44.3951 13.1744 44.5574 12.4248 44.5574 11.5664H44.1574ZM43.7074 13.6223C43.413 14.1866 42.9919 14.6172 42.4412 14.9183L42.633 15.2692C43.2542 14.9297 43.7315 14.441 44.0621 13.8074L43.7074 13.6223ZM42.4408 14.9184C41.8929 15.2193 41.2296 15.3742 40.4434 15.3742V15.7742C41.2821 15.7742 42.0147 15.6088 42.6334 15.2691L42.4408 14.9184ZM39.2988 14.325H40.373V13.925H39.2988V14.325ZM40.373 14.325C40.8958 14.325 41.35 14.2325 41.7269 14.0369L41.5426 13.6819C41.2372 13.8404 40.8503 13.925 40.373 13.925V14.325ZM41.7274 14.0366C42.1131 13.835 42.4009 13.5233 42.59 13.1107L42.2264 12.944C42.0717 13.2814 41.844 13.5243 41.5421 13.6821L41.7274 14.0366ZM42.5898 13.1112C42.7805 12.6985 42.8699 12.1801 42.8699 11.5664H42.4699C42.4699 12.1454 42.3849 12.601 42.2266 12.9435L42.5898 13.1112ZM42.8699 11.5664C42.8699 10.9577 42.7804 10.4431 42.5895 10.0328L42.2269 10.2016C42.3849 10.5413 42.4699 10.9928 42.4699 11.5664H42.8699ZM42.59 10.0339C42.401 9.62152 42.1145 9.31071 41.7308 9.11155L41.5465 9.46657C41.8451 9.62158 42.0716 9.86286 42.2264 10.2005L42.59 10.0339ZM41.7308 9.11155C41.3539 8.91592 40.8997 8.82344 40.377 8.82344V9.22344C40.8542 9.22344 41.2411 9.30804 41.5465 9.46657L41.7308 9.11155ZM40.377 8.82344H39.2988V9.22344H40.377V8.82344ZM39.0988 9.02344V14.125H39.4988V9.02344H39.0988ZM45.6104 15.5742H45.4104V15.7742H45.6104V15.5742ZM45.6104 7.57422V7.37422H45.4104V7.57422H45.6104ZM51.001 7.57422H51.201V7.37422H51.001V7.57422ZM51.001 8.96875V9.16875H51.201V8.96875H51.001ZM47.3018 8.96875V8.76875H47.1018V8.96875H47.3018ZM47.3018 10.875H47.1018V11.075H47.3018V10.875ZM50.7236 10.875H50.9236V10.675H50.7236V10.875ZM50.7236 12.2695V12.4695H50.9236V12.2695H50.7236ZM47.3018 12.2695V12.0695H47.1018V12.2695H47.3018ZM47.3018 14.1797H47.1018V14.3797H47.3018V14.1797ZM51.0166 14.1797H51.2166V13.9797H51.0166V14.1797ZM51.0166 15.5742V15.7742H51.2166V15.5742H51.0166ZM45.8104 15.5742V7.57422H45.4104V15.5742H45.8104ZM45.6104 7.77422H51.001V7.37422H45.6104V7.77422ZM50.801 7.57422V8.96875H51.201V7.57422H50.801ZM51.001 8.76875H47.3018V9.16875H51.001V8.76875ZM47.1018 8.96875V10.875H47.5018V8.96875H47.1018ZM47.3018 11.075H50.7236V10.675H47.3018V11.075ZM50.5236 10.875V12.2695H50.9236V10.875H50.5236ZM50.7236 12.0695H47.3018V12.4695H50.7236V12.0695ZM47.1018 12.2695V14.1797H47.5018V12.2695H47.1018ZM47.3018 14.3797H51.0166V13.9797H47.3018V14.3797ZM50.8166 14.1797V15.5742H51.2166V14.1797H50.8166ZM51.0166 15.3742H45.6104V15.7742H51.0166V15.3742ZM56.6855 9.875L56.4865 9.89474L56.5044 10.075H56.6855V9.875ZM54.6191 8.99609L54.693 9.18198L54.6952 9.18108L54.6191 8.99609ZM54.1816 9.3125L54.0216 9.19249L54.0202 9.1945L54.1816 9.3125ZM54.0332 9.77344L54.2332 9.78071V9.77344H54.0332ZM54.123 10.1484L53.9523 10.2526L53.9541 10.2555L54.123 10.1484ZM54.4004 10.4258L54.2894 10.5922L54.2921 10.5939L54.4004 10.4258ZM54.8066 10.625L54.7368 10.8124L54.7396 10.8134L54.8066 10.625ZM55.2988 10.7656L55.3453 10.5711L55.3425 10.5705L55.2988 10.7656ZM56.0176 10.9375L55.9711 11.132L55.9739 11.1327L56.0176 10.9375ZM56.9785 11.25L56.897 11.4326L56.897 11.4326L56.9785 11.25ZM57.7363 11.7305L57.8693 11.5811L57.8693 11.5811L57.7363 11.7305ZM58.2324 12.4023L58.0503 12.4851L58.051 12.4866L58.2324 12.4023ZM58.416 13.2891L58.616 13.2901L58.616 13.2875L58.416 13.2891ZM58.041 14.5625L57.8763 14.4491L57.8761 14.4493L58.041 14.5625ZM56.9785 15.3945L57.0565 15.5787L57.057 15.5785L56.9785 15.3945ZM53.623 15.3906L53.5463 15.5753L53.5467 15.5755L53.623 15.3906ZM52.5059 14.5117L52.3405 14.6242L52.3413 14.6254L52.5059 14.5117ZM52.0879 13.0625V12.8625H51.8833L51.8879 13.067L52.0879 13.0625ZM53.7246 13.0625L53.9241 13.0489L53.9115 12.8625H53.7246V13.0625ZM53.9551 13.7344L53.7953 13.8548L53.7973 13.8573L53.9551 13.7344ZM54.5059 14.1367L54.4319 14.3226L54.4345 14.3235L54.5059 14.1367ZM56.0371 14.1445L55.9644 13.9582L55.9636 13.9585L56.0371 14.1445ZM56.5332 13.7969L56.6902 13.9208L56.6902 13.9208L56.5332 13.7969ZM56.5488 12.832L56.3965 12.9617L56.3981 12.9635L56.5488 12.832ZM56.0879 12.5195L56.0091 12.7034L56.01 12.7037L56.0879 12.5195ZM55.3496 12.2852L55.3009 12.4791L55.3027 12.4796L55.3496 12.2852ZM54.4785 12.0664L54.5272 11.8724L54.5258 11.8721L54.4785 12.0664ZM52.8809 11.2969L52.7476 11.446L52.7476 11.446L52.8809 11.2969ZM52.2988 9.88672L52.4988 9.8876L52.4988 9.88564L52.2988 9.88672ZM52.6855 8.61719L52.5237 8.49962L52.5232 8.50039L52.6855 8.61719ZM53.7676 7.76953L53.6865 7.58668L53.7676 7.76953ZM56.8848 7.76953L56.8014 7.95131L56.8018 7.95149L56.8848 7.76953ZM57.9238 8.61719L57.7587 8.73004L57.7587 8.73004L57.9238 8.61719ZM58.3066 9.875V10.075H58.5099L58.5066 9.87172L58.3066 9.875ZM56.8846 9.85526C56.8482 9.4886 56.6881 9.1904 56.4018 8.97957L56.1646 9.30168C56.3522 9.43981 56.4604 9.63119 56.4865 9.89474L56.8846 9.85526ZM56.4018 8.97957C56.1195 8.77176 55.7514 8.67891 55.3184 8.67891V9.07891C55.6978 9.07891 55.9729 9.16053 56.1646 9.30168L56.4018 8.97957ZM55.3184 8.67891C55.0247 8.67891 54.7641 8.7203 54.5431 8.81111L54.6952 9.18108C54.8544 9.11564 55.06 9.07891 55.3184 9.07891V8.67891ZM54.5453 8.81022C54.3281 8.8965 54.1495 9.022 54.0216 9.1925L54.3416 9.4325C54.4169 9.33217 54.5299 9.24673 54.693 9.18196L54.5453 8.81022ZM54.0202 9.1945C53.8955 9.36507 53.8332 9.56026 53.8332 9.77344H54.2332C54.2332 9.64286 54.2698 9.53077 54.3431 9.4305L54.0202 9.1945ZM53.8333 9.76617C53.8269 9.94269 53.8639 10.1076 53.9523 10.2526L54.2938 10.0443C54.252 9.97572 54.2291 9.89064 54.2331 9.78071L53.8333 9.76617ZM53.9541 10.2555C54.0384 10.3885 54.1517 10.5003 54.2895 10.5922L54.5113 10.2594C54.4147 10.195 54.3431 10.1219 54.2919 10.0413L53.9541 10.2555ZM54.2921 10.5939C54.4232 10.6784 54.5719 10.7509 54.7368 10.8124L54.8765 10.4376C54.7341 10.3845 54.6119 10.3242 54.5087 10.2577L54.2921 10.5939ZM54.7396 10.8134C54.9016 10.8711 55.0735 10.9201 55.2551 10.9608L55.3425 10.5705C55.1752 10.533 55.019 10.4883 54.8737 10.4366L54.7396 10.8134ZM55.2523 10.9601L55.9711 11.132L56.0641 10.743L55.3453 10.5711L55.2523 10.9601ZM55.9739 11.1327C56.3114 11.2082 56.6188 11.3084 56.897 11.4326L57.06 11.0674C56.7549 10.9311 56.4217 10.823 56.0613 10.7423L55.9739 11.1327ZM56.897 11.4326C57.1721 11.5554 57.4068 11.7049 57.6033 11.8798L57.8693 11.5811C57.6387 11.3758 57.3683 11.205 57.06 11.0674L56.897 11.4326ZM57.6033 11.8798C57.7963 12.0516 57.9448 12.2529 58.0503 12.4851L58.4145 12.3196C58.2857 12.0361 58.1035 11.7896 57.8693 11.5811L57.6033 11.8798ZM58.051 12.4866C58.1569 12.7144 58.2136 12.981 58.216 13.2906L58.616 13.2875C58.6132 12.9305 58.5475 12.6059 58.4138 12.3181L58.051 12.4866ZM58.216 13.288C58.2136 13.7425 58.0982 14.1267 57.8763 14.4491L58.2058 14.6759C58.4786 14.2795 58.6132 13.8148 58.616 13.2901L58.216 13.288ZM57.8761 14.4493C57.6561 14.7699 57.3345 15.0251 56.9 15.2106L57.057 15.5785C57.5497 15.3681 57.9363 15.0686 58.2059 14.6757L57.8761 14.4493ZM56.9005 15.2104C56.4704 15.3926 55.9425 15.4875 55.3105 15.4875V15.8875C55.9807 15.8875 56.5647 15.7871 57.0565 15.5787L56.9005 15.2104ZM55.3105 15.4875C54.6847 15.4875 54.1492 15.3916 53.6994 15.2058L53.5467 15.5755C54.0552 15.7855 54.6447 15.8875 55.3105 15.8875V15.4875ZM53.6998 15.2059C53.2552 15.0213 52.9147 14.7515 52.6704 14.398L52.3413 14.6254C52.6335 15.048 53.0378 15.3641 53.5463 15.5753L53.6998 15.2059ZM52.6712 14.3993C52.4316 14.0469 52.3002 13.6034 52.2878 13.058L51.8879 13.067C51.9016 13.6726 52.0488 14.1953 52.3405 14.6242L52.6712 14.3993ZM52.0879 13.2625H53.7246V12.8625H52.0879V13.2625ZM53.5251 13.0761C53.5454 13.3754 53.6324 13.6385 53.7954 13.8547L54.1148 13.614C54.007 13.4709 53.9403 13.2861 53.9241 13.0489L53.5251 13.0761ZM53.7973 13.8573C53.9593 14.0652 54.1731 14.2196 54.4319 14.3226L54.5798 13.9509C54.3803 13.8715 54.2269 13.7578 54.1128 13.6114L53.7973 13.8573ZM54.4345 14.3235C54.6927 14.4222 54.9792 14.4695 55.291 14.4695V14.0695C55.0195 14.0695 54.7826 14.0283 54.5772 13.9499L54.4345 14.3235ZM55.291 14.4695C55.5963 14.4695 55.871 14.4252 56.1106 14.3305L55.9636 13.9585C55.7813 14.0305 55.5587 14.0695 55.291 14.0695V14.4695ZM56.1098 14.3308C56.3495 14.2373 56.5467 14.1025 56.6902 13.9208L56.3762 13.6729C56.2853 13.7881 56.1518 13.8851 55.9644 13.9582L56.1098 14.3308ZM56.6902 13.9208C56.8358 13.7363 56.909 13.5219 56.909 13.2852H56.509C56.509 13.4338 56.465 13.5605 56.3762 13.6729L56.6902 13.9208ZM56.909 13.2852C56.909 13.0627 56.8415 12.8633 56.6995 12.7006L56.3981 12.9635C56.4697 13.0455 56.509 13.1483 56.509 13.2852H56.909ZM56.7011 12.7024C56.5707 12.5491 56.3875 12.4291 56.1658 12.3353L56.01 12.7037C56.1945 12.7818 56.3186 12.8701 56.3965 12.9617L56.7011 12.7024ZM56.1667 12.3357C55.9528 12.244 55.6953 12.1628 55.3965 12.0907L55.3027 12.4796C55.5872 12.5482 55.8219 12.6231 56.0091 12.7034L56.1667 12.3357ZM55.3983 12.0912L54.5272 11.8724L54.4298 12.2604L55.3009 12.4791L55.3983 12.0912ZM54.5258 11.8721C53.8732 11.7133 53.3735 11.4688 53.0141 11.1477L52.7476 11.446C53.1694 11.8228 53.7348 12.0913 54.4312 12.2607L54.5258 11.8721ZM53.0141 11.1477C52.6719 10.8421 52.4964 10.4297 52.4988 9.8876L52.0988 9.88584C52.096 10.5261 52.3085 11.0538 52.7476 11.446L53.0141 11.1477ZM52.4988 9.88564C52.4964 9.4397 52.6143 9.05864 52.8479 8.73399L52.5232 8.50039C52.2359 8.89969 52.096 9.36498 52.0988 9.88779L52.4988 9.88564ZM52.8473 8.73475C53.0873 8.40458 53.4185 8.14299 53.8486 7.95238L53.6865 7.58668C53.2 7.80232 52.8099 8.10584 52.5237 8.49962L52.8473 8.73475ZM53.8486 7.95238C54.2776 7.76226 54.7701 7.66484 55.3301 7.66484V7.26484C54.7234 7.26484 54.1742 7.37055 53.6865 7.58668L53.8486 7.95238ZM55.3301 7.66484C55.9012 7.66484 56.3899 7.76252 56.8014 7.95131L56.9682 7.58775C56.4942 7.37029 55.9464 7.26484 55.3301 7.26484V7.66484ZM56.8018 7.95149C57.2179 8.1413 57.5342 8.40155 57.7587 8.73004L58.0889 8.50434C57.8187 8.10886 57.4423 7.80401 56.9678 7.58757L56.8018 7.95149ZM57.7587 8.73004C57.9821 9.05687 58.0994 9.43731 58.1067 9.87828L58.5066 9.87172C58.4982 9.35957 58.3604 8.90146 58.0889 8.50434L57.7587 8.73004ZM58.3066 9.675H56.6855V10.075H58.3066V9.675ZM59.249 8.96875H59.049V9.16875H59.249V8.96875ZM59.249 7.57422V7.37422H59.049V7.57422H59.249ZM65.8193 7.57422H66.0193V7.37422H65.8193V7.57422ZM65.8193 8.96875V9.16875H66.0193V8.96875H65.8193ZM63.3701 8.96875V8.76875H63.1701V8.96875H63.3701ZM63.3701 15.5742V15.7742H63.5701V15.5742H63.3701ZM61.6982 15.5742H61.4982V15.7742H61.6982V15.5742ZM61.6982 8.96875H61.8982V8.76875H61.6982V8.96875ZM59.449 8.96875V7.57422H59.049V8.96875H59.449ZM59.249 7.77422H65.8193V7.37422H59.249V7.77422ZM65.6193 7.57422V8.96875H66.0193V7.57422H65.6193ZM65.8193 8.76875H63.3701V9.16875H65.8193V8.76875ZM63.1701 8.96875V15.5742H63.5701V8.96875H63.1701ZM63.3701 15.3742H61.6982V15.7742H63.3701V15.3742ZM61.8982 15.5742V8.96875H61.4982V15.5742H61.8982ZM61.6982 8.76875H59.249V9.16875H61.6982V8.76875ZM67.3027 15.5742V15.7742H67.448L67.4929 15.6361L67.3027 15.5742ZM65.4902 15.5742L65.3012 15.509L65.2096 15.7742H65.4902V15.5742ZM68.252 7.57422V7.37422H68.1094L68.0629 7.50895L68.252 7.57422ZM70.4316 7.57422L70.6207 7.50904L70.5742 7.37422H70.4316V7.57422ZM73.1895 15.5742V15.7742H73.4699L73.3785 15.509L73.1895 15.5742ZM71.377 15.5742L71.1867 15.636L71.2316 15.7742H71.377V15.5742ZM69.373 9.40234L69.5633 9.34058L69.5184 9.20234H69.373V9.40234ZM69.3105 9.40234V9.20234H69.1653L69.1204 9.34047L69.3105 9.40234ZM67.1895 12.4297V12.2297H66.9895V12.4297H67.1895ZM71.4707 12.4297H71.6707V12.2297H71.4707V12.4297ZM71.4707 13.75V13.95H71.6707V13.75H71.4707ZM67.1895 13.75H66.9895V13.95H67.1895V13.75ZM67.3027 15.3742H65.4902V15.7742H67.3027V15.3742ZM65.6793 15.6395L68.441 7.63948L68.0629 7.50895L65.3012 15.509L65.6793 15.6395ZM68.252 7.77422H70.4316V7.37422H68.252V7.77422ZM70.2426 7.6394L73.0004 15.6394L73.3785 15.509L70.6207 7.50904L70.2426 7.6394ZM73.1895 15.3742H71.377V15.7742H73.1895V15.3742ZM71.5672 15.5125L69.5633 9.34058L69.1828 9.46411L71.1867 15.636L71.5672 15.5125ZM69.373 9.20234H69.3105V9.60234H69.373V9.20234ZM69.1204 9.34047L67.1125 15.5123L67.4929 15.6361L69.5007 9.46422L69.1204 9.34047ZM67.1895 12.6297H71.4707V12.2297H67.1895V12.6297ZM71.2707 12.4297V13.75H71.6707V12.4297H71.2707ZM71.4707 13.55H67.1895V13.95H71.4707V13.55ZM67.3895 13.75V12.4297H66.9895V13.75H67.3895ZM76.7959 12.793V12.593H76.3932L76.6365 12.9138L76.7959 12.793ZM78.2334 12.793L78.3913 12.6702L78.3313 12.593H78.2334V12.793ZM78.9561 13.7227L78.798 13.8455L78.8043 13.8529L78.9561 13.7227ZM79.667 14.5508L79.8234 14.426L79.8187 14.4205L79.667 14.5508ZM81.0068 16.2305V16.4305H81.4222L81.1632 16.1058L81.0068 16.2305ZM79.4287 16.2305L79.2736 16.3567L79.3336 16.4305H79.4287V16.2305ZM78.5068 15.0977L78.3429 15.213L78.3517 15.2239L78.5068 15.0977ZM78.0342 14.4258L78.1979 14.3106L78.1935 14.3049L78.0342 14.4258ZM80.6318 13.8008L80.4559 13.7057L80.4556 13.7063L80.6318 13.8008ZM79.2881 15.2031L79.3867 15.3771L79.387 15.377L79.2881 15.2031ZM75.4678 15.1992L75.567 15.0256L75.4678 15.1992ZM74.1279 13.7969L73.9517 13.8914L73.9517 13.8914L74.1279 13.7969ZM74.1279 9.34766L74.3042 9.44216L74.3042 9.44216L74.1279 9.34766ZM75.4678 7.94922L75.5664 8.12321L75.567 8.12287L75.4678 7.94922ZM79.2881 7.94922L79.1889 8.12287L79.1898 8.12341L79.2881 7.94922ZM80.6318 9.34766L80.4556 9.44216L80.4559 9.44274L80.6318 9.34766ZM79.1592 10.1445L78.9754 10.2235L78.9759 10.2245L79.1592 10.1445ZM78.4521 9.26172L78.3422 9.42879L78.3422 9.42879L78.4521 9.26172ZM76.3115 9.26172L76.4215 9.42879L76.4215 9.42879L76.3115 9.26172ZM75.6006 10.1445L75.4173 10.0646L75.4168 10.0656L75.6006 10.1445ZM75.6006 13.0039L75.4168 13.0828L75.4173 13.0839L75.6006 13.0039ZM76.3115 13.8867L76.4215 13.7197L76.4215 13.7197L76.3115 13.8867ZM78.4521 13.8867L78.3422 13.7197L78.3422 13.7197L78.4521 13.8867ZM79.1592 13.0039L78.9759 12.9239L78.9754 12.925L79.1592 13.0039ZM76.7959 12.993H78.2334V12.593H76.7959V12.993ZM78.0755 12.9157L78.7981 13.8454L79.114 13.5999L78.3913 12.6702L78.0755 12.9157ZM78.8043 13.8529L79.5152 14.6811L79.8187 14.4205L79.1078 13.5924L78.8043 13.8529ZM79.5106 14.6755L80.8505 16.3552L81.1632 16.1058L79.8233 14.4261L79.5106 14.6755ZM81.0068 16.0305H79.4287V16.4305H81.0068V16.0305ZM79.5838 16.1042L78.662 14.9714L78.3517 15.2239L79.2736 16.3567L79.5838 16.1042ZM78.6704 14.9826L78.1978 14.3107L77.8706 14.5409L78.3433 15.2127L78.6704 14.9826ZM78.1935 14.3049L76.9553 12.6721L76.6365 12.9138L77.8748 14.5466L78.1935 14.3049ZM80.9279 11.5742C80.9279 12.4217 80.7673 13.1294 80.4559 13.7057L80.8078 13.8959C81.1578 13.2482 81.3279 12.4715 81.3279 11.5742H80.9279ZM80.4556 13.7063C80.1441 14.2872 79.7221 14.7262 79.1892 15.0293L79.387 15.377C79.9895 15.0342 80.4633 14.5383 80.8081 13.8953L80.4556 13.7063ZM79.1895 15.0291C78.657 15.3309 78.0561 15.4836 77.3818 15.4836V15.8836C78.1191 15.8836 78.789 15.7159 79.3867 15.3771L79.1895 15.0291ZM77.3818 15.4836C76.7024 15.4836 76.0991 15.3297 75.567 15.0256L75.3685 15.3729C75.9666 15.7146 76.6394 15.8836 77.3818 15.8836V15.4836ZM75.567 15.0256C75.0367 14.7225 74.6158 14.2836 74.3042 13.7024L73.9517 13.8914C74.2963 14.5341 74.7686 15.0301 75.3685 15.3729L75.567 15.0256ZM74.3042 13.7024C73.9951 13.1259 73.8357 12.4192 73.8357 11.5742H73.4357C73.4357 12.4688 73.6045 13.2439 73.9517 13.8914L74.3042 13.7024ZM73.8357 11.5742C73.8357 10.7265 73.9951 10.0186 74.3042 9.44216L73.9517 9.25315C73.6045 9.90071 73.4357 10.6771 73.4357 11.5742H73.8357ZM74.3042 9.44216C74.6158 8.86108 75.0365 8.4236 75.5664 8.12321L75.3692 7.77523C74.7689 8.11547 74.2964 8.61027 73.9517 9.25315L74.3042 9.44216ZM75.567 8.12287C76.0991 7.81879 76.7024 7.66484 77.3818 7.66484V7.26484C76.6394 7.26484 75.9666 7.43382 75.3685 7.77557L75.567 8.12287ZM77.3818 7.66484C78.0558 7.66484 78.6565 7.81866 79.1889 8.12287L79.3873 7.77557C78.7895 7.43394 78.1193 7.26484 77.3818 7.26484V7.66484ZM79.1898 8.12341C79.7223 8.42385 80.1441 8.86132 80.4556 9.44216L80.8081 9.25315C80.4633 8.61004 79.9893 8.11521 79.3864 7.77503L79.1898 8.12341ZM80.4559 9.44274C80.7673 10.019 80.9279 10.7267 80.9279 11.5742H81.3279C81.3279 10.6769 81.1578 9.90026 80.8078 9.25257L80.4559 9.44274ZM79.6131 11.5742C79.6131 10.9903 79.5258 10.4847 79.3425 10.0646L78.9759 10.2245C79.1311 10.5804 79.2131 11.0279 79.2131 11.5742H79.6131ZM79.3429 10.0656C79.1633 9.64743 78.9044 9.31993 78.5621 9.09465L78.3422 9.42879C78.6093 9.60455 78.8217 9.8656 78.9754 10.2235L79.3429 10.0656ZM78.5621 9.09465C78.2209 8.87011 77.8249 8.76094 77.3818 8.76094V9.16094C77.7565 9.16094 78.074 9.25229 78.3422 9.42879L78.5621 9.09465ZM77.3818 8.76094C76.9388 8.76094 76.5428 8.87011 76.2016 9.09465L76.4215 9.42879C76.6897 9.25229 77.0072 9.16094 77.3818 9.16094V8.76094ZM76.2016 9.09465C75.8596 9.31973 75.5995 9.64685 75.4173 10.0646L75.7839 10.2245C75.9402 9.86617 76.1541 9.60475 76.4215 9.42879L76.2016 9.09465ZM75.4168 10.0656C75.2365 10.4855 75.1506 10.9907 75.1506 11.5742H75.5506C75.5506 11.0276 75.6314 10.5796 75.7844 10.2235L75.4168 10.0656ZM75.1506 11.5742C75.1506 12.1578 75.2365 12.663 75.4168 13.0828L75.7844 12.925C75.6314 12.5688 75.5506 12.1209 75.5506 11.5742H75.1506ZM75.4173 13.0839C75.5995 13.5016 75.8596 13.8287 76.2016 14.0538L76.4215 13.7197C76.1541 13.5437 75.9402 13.2823 75.7839 12.9239L75.4173 13.0839ZM76.2016 14.0538C76.5428 14.2783 76.9388 14.3875 77.3818 14.3875V13.9875C77.0072 13.9875 76.6897 13.8962 76.4215 13.7197L76.2016 14.0538ZM77.3818 14.3875C77.8249 14.3875 78.2209 14.2783 78.5621 14.0538L78.3422 13.7197C78.074 13.8962 77.7565 13.9875 77.3818 13.9875V14.3875ZM78.5621 14.0538C78.9044 13.8285 79.1633 13.501 79.3429 13.0828L78.9754 12.925C78.8217 13.2828 78.6093 13.5439 78.3422 13.7197L78.5621 14.0538ZM79.3425 13.0839C79.5258 12.6637 79.6131 12.1581 79.6131 11.5742H79.2131C79.2131 12.1205 79.1311 12.5681 78.9759 12.9239L79.3425 13.0839ZM87.3223 7.57422V7.37422H87.1223V7.57422H87.3223ZM89.0137 7.57422H89.2137V7.37422H89.0137V7.57422ZM88.5957 14.3008L88.427 14.1933L88.4266 14.1941L88.5957 14.3008ZM87.4355 15.3242L87.5231 15.504L87.5239 15.5037L87.4355 15.3242ZM83.9551 15.3242L83.8668 15.5037L83.8675 15.504L83.9551 15.3242ZM82.7949 14.3008L82.6258 14.4075L82.6258 14.4075L82.7949 14.3008ZM82.3809 7.57422V7.37422H82.1809V7.57422H82.3809ZM84.0723 7.57422H84.2723V7.37422H84.0723V7.57422ZM84.2715 13.4375L84.097 13.5353L84.0978 13.5367L84.2715 13.4375ZM84.8418 13.9961L84.745 14.1711L84.745 14.1711L84.8418 13.9961ZM86.5527 13.9961L86.4559 13.8211L86.4551 13.8215L86.5527 13.9961ZM87.1191 13.4375L86.9455 13.3383L86.9447 13.3397L87.1191 13.4375ZM87.3223 7.77422H89.0137V7.37422H87.3223V7.77422ZM88.8137 7.57422V12.7695H89.2137V7.57422H88.8137ZM88.8137 12.7695C88.8137 13.3197 88.6827 13.7918 88.427 14.1933L88.7644 14.4082C89.066 13.9347 89.2137 13.386 89.2137 12.7695H88.8137ZM88.4266 14.1941C88.1716 14.5981 87.814 14.9151 87.3472 15.1448L87.5239 15.5037C88.0519 15.2438 88.4677 14.8785 88.7648 14.4075L88.4266 14.1941ZM87.348 15.1444C86.8827 15.371 86.3343 15.4875 85.6973 15.4875V15.8875C86.3832 15.8875 86.9936 15.7619 87.5231 15.504L87.348 15.1444ZM85.6973 15.4875C85.0575 15.4875 84.5078 15.3709 84.0426 15.1444L83.8675 15.504C84.3971 15.7619 85.0089 15.8875 85.6973 15.8875V15.4875ZM84.0434 15.1448C83.5767 14.9151 83.219 14.5981 82.9641 14.1941L82.6258 14.4075C82.9229 14.8785 83.3387 15.2438 83.8668 15.5037L84.0434 15.1448ZM82.9641 14.1941C82.7107 13.7925 82.5809 13.32 82.5809 12.7695H82.1809C82.1809 13.3857 82.3271 13.9341 82.6258 14.4075L82.9641 14.1941ZM82.5809 12.7695V7.57422H82.1809V12.7695H82.5809ZM82.3809 7.77422H84.0723V7.37422H82.3809V7.77422ZM83.8723 7.57422V12.625H84.2723V7.57422H83.8723ZM83.8723 12.625C83.8723 12.9597 83.9455 13.2649 84.097 13.5353L84.446 13.3397C84.3318 13.1361 84.2723 12.8997 84.2723 12.625H83.8723ZM84.0978 13.5367C84.2519 13.8064 84.469 14.0184 84.745 14.1711L84.9386 13.8211C84.725 13.7029 84.5619 13.5426 84.4451 13.3383L84.0978 13.5367ZM84.745 14.1711C85.0239 14.3254 85.3435 14.3992 85.6973 14.3992V13.9992C85.4 13.9992 85.1492 13.9376 84.9386 13.8211L84.745 14.1711ZM85.6973 14.3992C86.0533 14.3992 86.3733 14.3256 86.6503 14.1707L86.4551 13.8215C86.2478 13.9375 85.9975 13.9992 85.6973 13.9992V14.3992ZM86.6495 14.1711C86.9259 14.0182 87.142 13.8057 87.2936 13.5353L86.9447 13.3397C86.8306 13.5432 86.6692 13.7031 86.4559 13.8211L86.6495 14.1711ZM87.2928 13.5367C87.4474 13.2661 87.5223 12.9604 87.5223 12.625H87.1223C87.1223 12.899 87.0617 13.1349 86.9455 13.3383L87.2928 13.5367ZM87.5223 12.625V7.57422H87.1223V12.625H87.5223ZM90.4053 15.5742H90.2053V15.7742H90.4053V15.5742ZM90.4053 7.57422V7.37422H90.2053V7.57422H90.4053ZM95.7959 7.57422H95.9959V7.37422H95.7959V7.57422ZM95.7959 8.96875V9.16875H95.9959V8.96875H95.7959ZM92.0967 8.96875V8.76875H91.8967V8.96875H92.0967ZM92.0967 10.875H91.8967V11.075H92.0967V10.875ZM95.5186 10.875H95.7186V10.675H95.5186V10.875ZM95.5186 12.2695V12.4695H95.7186V12.2695H95.5186ZM92.0967 12.2695V12.0695H91.8967V12.2695H92.0967ZM92.0967 14.1797H91.8967V14.3797H92.0967V14.1797ZM95.8115 14.1797H96.0115V13.9797H95.8115V14.1797ZM95.8115 15.5742V15.7742H96.0115V15.5742H95.8115ZM90.6053 15.5742V7.57422H90.2053V15.5742H90.6053ZM90.4053 7.77422H95.7959V7.37422H90.4053V7.77422ZM95.5959 7.57422V8.96875H95.9959V7.57422H95.5959ZM95.7959 8.76875H92.0967V9.16875H95.7959V8.76875ZM91.8967 8.96875V10.875H92.2967V8.96875H91.8967ZM92.0967 11.075H95.5186V10.675H92.0967V11.075ZM95.3186 10.875V12.2695H95.7186V10.875H95.3186ZM95.5186 12.0695H92.0967V12.4695H95.5186V12.0695ZM91.8967 12.2695V14.1797H92.2967V12.2695H91.8967ZM92.0967 14.3797H95.8115V13.9797H92.0967V14.3797ZM95.6115 14.1797V15.5742H96.0115V14.1797H95.6115ZM95.8115 15.3742H90.4053V15.7742H95.8115V15.3742Z" fill="#474E56"/>
<path d="M27.3779 3.81627L30.9663 3.24676L29.6172 1.11548L27.3779 3.81627Z" fill="#B78520"/>
<path d="M23.6218 17.5427L25.8533 16.145L34.9428 10.4514L34.945 11.221L25.8554 16.9146L23.6239 18.3123L14.5344 24.0058L14.5322 23.2357L23.6218 17.5427Z" fill="#0E454A"/>
<path d="M0.410156 14.3328L0.412286 15.1024L14.5339 24.0059L14.5318 23.2358L0.410156 14.3328Z" fill="#15676F"/>
<path d="M0.410156 14.3328L14.5318 23.2358L23.6214 17.5427L25.8529 16.145L34.9424 10.4515L20.8208 1.54797L11.7312 7.24156L9.49972 8.63921L0.410156 14.3328Z" fill="#CFD1D1"/>
<path d="M20.1731 3.83159C20.3005 3.7864 20.4587 3.81223 20.533 3.89061L20.528 1.96632C20.4536 1.88794 20.2954 1.86163 20.168 1.9073C20.1697 2.54873 20.1714 3.19016 20.1731 3.83159Z" fill="#EBF8FA"/>
<path d="M20.5335 3.8906C20.5556 3.91596 20.5662 3.94363 20.5662 3.9713L20.5611 2.04654C20.5611 2.01887 20.5505 1.9912 20.5284 1.96631C20.5301 2.54362 20.335 3.35475 20.5335 3.8906Z" fill="#EBF8FA"/>
<path d="M16.4875 5.61009C17.5862 4.92253 18.8248 4.3226 20.1731 3.83152C20.1714 3.19009 20.1697 2.54866 20.168 1.90723C18.8197 2.39784 17.5812 2.99777 16.4824 3.6858C16.4841 4.32723 16.4858 4.96866 16.4875 5.61009Z" fill="#EBF8FA"/>
<path d="M13.634 7.92724C14.4246 7.07922 15.3856 6.30039 16.4873 5.61008C16.4856 4.96865 16.4839 4.32722 16.4822 3.68579C15.3805 4.37562 14.4199 5.15446 13.6289 6.00248C13.6306 6.57983 13.6327 7.34989 13.634 7.92724Z" fill="#EBF8FA"/>
<path d="M20.5662 3.97127L20.5611 2.04651C20.5611 2.09033 20.5348 2.13368 20.4846 2.16503C20.4689 2.17471 20.4506 2.18345 20.4302 2.19086C19.1189 2.66811 17.9144 3.25099 16.8462 3.92009C15.7781 4.58919 14.846 5.34451 14.0801 6.16807L14.0852 8.09283C14.8511 7.26923 15.7832 6.5139 16.8514 5.8448C17.9195 5.17575 19.1236 4.59287 20.4353 4.11515C20.4557 4.10821 20.4736 4.09947 20.4897 4.08932C20.5395 4.05797 20.5662 4.01504 20.5662 3.97127Z" fill="#FABE31"/>
<path d="M21.9988 4.81466C22.0226 4.84096 22.0341 4.86906 22.0341 4.8972L22.0289 2.97244C22.0289 2.94477 22.0175 2.9162 21.9941 2.89037C21.9197 2.81199 21.762 2.78616 21.6371 2.83319C20.2871 3.32475 19.0464 3.92467 17.946 4.61408C16.8464 5.30301 15.8862 6.08091 15.0982 6.9285C15.0803 6.94739 15.0697 6.96722 15.065 6.98795C15.0633 6.99536 15.0625 7.00273 15.0625 7.0101L15.0676 8.93486C15.0676 8.92749 15.0685 8.91966 15.0702 8.91224C15.0748 8.89198 15.0854 8.87215 15.1033 8.85322C15.8913 8.00568 16.8511 7.22731 17.9511 6.53838C19.0515 5.84945 20.2918 5.24905 21.6417 4.75749C21.7667 4.71046 21.9248 4.73675 21.9988 4.81466Z" fill="#EBF8FA"/>
<path d="M22.0337 4.89717L22.0285 2.97241C22.029 3.01623 22.0018 3.05868 21.9512 3.09046L21.9559 5.01522C22.0065 4.98339 22.0337 4.94052 22.0337 4.89717Z" fill="#FABE31"/>
<path d="M21.8955 3.11491L21.9006 5.03968L21.9559 5.01522L21.9512 3.09045L21.8955 3.11491Z" fill="#FABE31"/>
<path d="M23.1076 5.68208C23.2352 5.63689 23.3933 5.66272 23.4672 5.7411C23.466 5.17437 23.4643 4.60764 23.463 4.04091L23.4621 3.81633C23.3882 3.73795 23.2301 3.71212 23.1025 3.75731C23.1042 4.39874 23.1059 5.04065 23.1076 5.68208Z" fill="#EBF8FA"/>
<path d="M23.5012 5.82174L23.4961 3.89698C23.4961 3.86931 23.4854 3.84169 23.4629 3.81628L23.468 5.74104C23.4901 5.76597 23.5007 5.79407 23.5012 5.82174Z" fill="#EBF8FA"/>
<path d="M23.5007 5.82173L23.4956 3.89697C23.4956 3.94079 23.4688 3.98414 23.4191 4.01502C23.4029 4.02517 23.3851 4.03396 23.3643 4.04085L23.3693 5.96561C23.3902 5.95824 23.408 5.94993 23.4242 5.93978C23.4739 5.90843 23.5007 5.86555 23.5007 5.82173Z" fill="#FABE31"/>
<path d="M24.9334 6.66514C24.9573 6.69097 24.9687 6.71958 24.9687 6.74725L24.9636 4.82296C24.9636 4.79482 24.9521 4.76667 24.9284 4.74042C24.8569 4.66388 24.6963 4.63621 24.5713 4.68324C24.573 5.32514 24.5747 5.96657 24.5764 6.608C24.7014 6.56092 24.862 6.58859 24.9334 6.66514Z" fill="#EBF8FA"/>
<path d="M24.9686 6.74729L24.9635 4.823C24.9635 4.86635 24.9368 4.90922 24.8857 4.94105L24.8908 6.86534C24.9414 6.83399 24.9686 6.79106 24.9686 6.74729Z" fill="#FABE31"/>
<path d="M24.833 4.96687L24.8381 6.89158L24.8908 6.86533L24.8857 4.94104L24.833 4.96687Z" fill="#FABE31"/>
<path d="M15.0625 7.01002L15.0676 8.93478C15.0676 8.99012 15.1135 9.04452 15.1959 9.07587C15.2997 9.11506 15.4284 9.10264 15.5088 9.05188C15.5249 9.04178 15.5394 9.02978 15.5513 9.01684C16.3185 8.19418 17.251 7.43933 18.3192 6.77023C19.3873 6.10113 20.591 5.51825 21.901 5.03963L21.8959 3.11487C20.5859 3.59353 19.3822 4.17637 18.3141 4.84547C17.246 5.51457 16.3134 6.26989 15.5462 7.09208C15.5343 7.10549 15.5202 7.11701 15.5037 7.12759C15.4234 7.17788 15.2946 7.19034 15.1913 7.15111C15.1084 7.12023 15.063 7.06583 15.0625 7.01002Z" fill="#FABE31"/>
<path d="M19.4221 7.46065C20.5204 6.77266 21.7594 6.17274 23.1077 5.68208C23.106 5.04065 23.1043 4.39875 23.1026 3.75732C21.7544 4.24845 20.5153 4.8479 19.417 5.53636C19.4187 6.17779 19.4204 6.81922 19.4221 7.46065Z" fill="#EBF8FA"/>
<path d="M26.4029 7.59116C26.4254 7.61699 26.436 7.64466 26.4364 7.67233L26.4313 5.74804C26.4313 5.72037 26.4203 5.69223 26.3978 5.66687C26.3995 6.24418 26.2039 7.05579 26.4029 7.59116Z" fill="#EBF8FA"/>
<path d="M13.5957 6.0842L13.6008 8.00849C13.6008 7.98082 13.6114 7.95268 13.6344 7.92732L13.6293 6.00256C13.6068 6.02839 13.5957 6.05653 13.5957 6.0842Z" fill="#EBF8FA"/>
<path d="M14.0381 6.20081L14.0432 8.12557L14.0848 8.09285L14.0797 6.16809L14.0381 6.20081Z" fill="#FABE31"/>
<path d="M13.5957 6.08411L13.6008 8.0084C13.6008 8.06511 13.6467 8.11998 13.7304 8.15181C13.8354 8.18963 13.9625 8.17622 14.0433 8.12551L14.0382 6.20075C13.9574 6.25151 13.8303 6.26535 13.7253 6.22705C13.642 6.1957 13.5957 6.14034 13.5957 6.08411Z" fill="#FABE31"/>
<path d="M16.4826 3.68586C15.3809 4.37569 14.4203 5.15453 13.6293 6.00255C13.56 6.08093 13.6008 6.1801 13.7253 6.22713C13.8303 6.26543 13.9574 6.25159 14.0382 6.20083L14.0798 6.16811C14.8457 5.34455 15.7779 4.58923 16.846 3.92013C17.9141 3.25103 19.1187 2.66815 20.43 2.1909C20.4504 2.18349 20.4687 2.17475 20.4844 2.16507C20.5655 2.11388 20.5855 2.03134 20.5282 1.96632C20.4538 1.88794 20.2957 1.86163 20.1682 1.9073C18.8199 2.39791 17.5813 2.99783 16.4826 3.68586Z" fill="#FABE31"/>
<path d="M16.5696 9.7774C17.3601 8.92938 18.3212 8.15097 19.4229 7.46067C19.4212 6.81924 19.4195 6.17781 19.4177 5.53638C18.3161 6.22626 17.355 7.0051 16.5645 7.85311C16.5662 8.43042 16.5683 9.20005 16.5696 9.7774Z" fill="#EBF8FA"/>
<path d="M17.0146 8.01815L17.0193 9.94291C17.7857 9.11931 18.7178 8.36398 19.7855 7.69488C20.8541 7.02578 22.0582 6.44337 23.3695 5.96565L23.3644 4.04089C22.0536 4.51861 20.849 5.10149 19.7808 5.77059C18.7127 6.43969 17.7806 7.19501 17.0146 8.01815Z" fill="#FABE31"/>
<path d="M20.8855 8.3884C21.9859 7.69947 23.2266 7.09954 24.5766 6.60799C24.5749 5.96656 24.5732 5.32513 24.5715 4.68323C23.2216 5.17479 21.9808 5.77471 20.8809 6.46412C20.8826 7.10555 20.8838 7.74697 20.8855 8.3884Z" fill="#EBF8FA"/>
<path d="M27.5115 8.45799C27.6365 8.41096 27.7971 8.43863 27.869 8.51565C27.8673 7.87422 27.8656 7.23232 27.8639 6.59089C27.792 6.51435 27.6318 6.48668 27.5068 6.53371C27.5085 7.17514 27.5102 7.81656 27.5115 8.45799Z" fill="#EBF8FA"/>
<path d="M27.8684 8.5157C27.8922 8.54153 27.9032 8.56967 27.9037 8.59777L27.8986 6.67301C27.8986 6.64491 27.8871 6.61677 27.8633 6.59094C27.865 7.23237 27.8667 7.87427 27.8684 8.5157Z" fill="#EBF8FA"/>
<path d="M27.9042 8.59773L27.8991 6.67297C27.8991 6.71632 27.8719 6.75924 27.8213 6.79102L27.8259 8.71531C27.877 8.68396 27.9042 8.64108 27.9042 8.59773Z" fill="#FABE31"/>
<path d="M27.7676 6.81732L27.7727 8.74162L27.8254 8.71531L27.8207 6.79102L27.7676 6.81732Z" fill="#FABE31"/>
<path d="M17.9459 4.61408C16.8463 5.30301 15.8862 6.08091 15.0981 6.9285C15.0259 7.00504 15.0667 7.10463 15.1912 7.15119C15.2945 7.19043 15.4233 7.17796 15.5037 7.12767C15.5202 7.11709 15.5343 7.10557 15.5461 7.09216C16.3134 6.26997 17.2459 5.51465 18.314 4.84555C19.3822 4.17645 20.5859 3.59362 21.8959 3.11495L21.9515 3.09049C22.0344 3.03841 22.0544 2.95676 21.9941 2.89037C21.9197 2.81199 21.762 2.78616 21.637 2.83319C20.2871 3.32475 19.0464 3.92467 17.9459 4.61408Z" fill="#FABE31"/>
<path d="M18.0383 10.7037C18.8263 9.8557 19.7861 9.07776 20.8857 8.3884C20.884 7.74697 20.8827 7.10554 20.881 6.46411C19.781 7.15304 18.8212 7.93141 18.0332 8.77895C18.0349 9.42038 18.0366 10.0618 18.0383 10.7037Z" fill="#EBF8FA"/>
<path d="M18.0031 10.7844C18.0031 10.7567 18.0142 10.7286 18.0384 10.7037C18.0367 10.0618 18.035 9.42036 18.0333 8.77893C18.0091 8.80429 17.998 8.83196 17.998 8.8601C17.9997 9.43741 18.0014 10.207 18.0031 10.7844Z" fill="#EBF8FA"/>
<path d="M17.998 8.86011L18.0031 10.7844C18.0031 10.8406 18.0499 10.896 18.1311 10.926C18.2361 10.9656 18.3674 10.9522 18.449 10.9011C18.4643 10.8918 18.4775 10.8808 18.4886 10.8688C19.2549 10.0456 20.1866 9.28985 21.2547 8.62122C22.3233 7.95169 23.5274 7.36929 24.8387 6.89152L24.8336 4.9668C23.5223 5.44452 22.3182 6.0274 21.2496 6.6965C20.1819 7.36555 19.2498 8.12092 18.4835 8.94401C18.4724 8.956 18.4592 8.96705 18.4439 8.97631C18.3623 9.0275 18.231 9.04133 18.1264 9.00167C18.0448 8.97121 17.998 8.91587 17.998 8.86011Z" fill="#FABE31"/>
<path d="M26.0423 7.53205C26.1698 7.48686 26.3279 7.51269 26.4023 7.59107L26.3972 5.66678C26.3228 5.5884 26.1647 5.56209 26.0372 5.60728C24.6889 6.10025 23.4491 6.7006 22.3486 7.38953C22.3503 8.03096 22.352 8.67286 22.3537 9.31429C23.4538 8.62488 24.6936 8.02455 26.0423 7.53205Z" fill="#EBF8FA"/>
<path d="M29.3377 9.44162C29.3611 9.46745 29.3726 9.49559 29.3726 9.52373L29.3675 7.59897C29.3675 7.5713 29.356 7.54268 29.3326 7.5169C29.2583 7.43847 29.1001 7.41269 28.9727 7.45788C28.9744 8.09931 28.976 8.74117 28.9777 9.3826C29.1053 9.33699 29.2633 9.36324 29.3377 9.44162Z" fill="#EBF8FA"/>
<path d="M29.3719 9.52376L29.3668 7.599C29.3673 7.64235 29.3401 7.68522 29.2891 7.71705L29.2942 9.64181C29.3447 9.60998 29.3719 9.56711 29.3719 9.52376Z" fill="#FABE31"/>
<path d="M29.2344 7.74145L29.2395 9.66621L29.2947 9.6418L29.2897 7.71704L29.2344 7.74145Z" fill="#FABE31"/>
<path d="M16.5303 7.93416L16.5354 9.85892C16.5354 9.83125 16.546 9.80315 16.569 9.77732L16.5639 7.85303C16.5413 7.87886 16.5303 7.90654 16.5303 7.93416Z" fill="#EBF8FA"/>
<path d="M16.9727 8.05126L16.9778 9.97603L17.019 9.94283L17.0143 8.01807L16.9727 8.05126Z" fill="#FABE31"/>
<path d="M16.5303 7.9342L16.5354 9.85896C16.5354 9.91525 16.5813 9.97054 16.6646 10.0019C16.77 10.0402 16.8971 10.0264 16.9779 9.97611L16.9727 8.05135C16.892 8.10206 16.7649 8.1159 16.6595 8.07718C16.5762 8.04583 16.5303 7.99096 16.5303 7.9342Z" fill="#FABE31"/>
<path d="M19.4172 5.53637C18.3155 6.22625 17.3544 7.00509 16.5639 7.8531C16.4946 7.93101 16.5354 8.0306 16.6595 8.0772C16.7649 8.11592 16.892 8.10208 16.9727 8.05137L17.0144 8.01817C17.7803 7.19504 18.7124 6.43972 19.7806 5.77061C20.8487 5.10151 22.0533 4.51863 23.3641 4.04091C23.385 4.03402 23.4028 4.02523 23.419 4.01508C23.5001 3.96437 23.5201 3.88183 23.4623 3.81633C23.3884 3.73795 23.2302 3.71212 23.1027 3.75731C21.7545 4.24844 20.5155 4.84791 19.4172 5.53637Z" fill="#FABE31"/>
<path d="M19.5037 11.6279C20.2934 10.7812 21.2541 10.0033 22.3541 9.31441C22.3524 8.67298 22.3507 8.03108 22.349 7.38965C21.249 8.07858 20.2888 8.85653 19.499 9.70312C19.5003 10.2805 19.5025 11.0506 19.5037 11.6279Z" fill="#EBF8FA"/>
<path d="M26.4358 7.67234L26.4307 5.74805C26.4307 5.79093 26.4044 5.83333 26.3542 5.86468C26.3385 5.87483 26.3198 5.88409 26.299 5.89145C24.9877 6.36917 23.7835 6.95158 22.7154 7.62068C21.6473 8.28978 20.7152 9.04558 19.9492 9.86866L19.9539 11.7929C20.7203 10.9699 21.6524 10.2145 22.7201 9.54544C23.7886 8.87634 24.9928 8.29393 26.3041 7.81574C26.3249 7.80833 26.3436 7.79959 26.3593 7.78944C26.4095 7.75809 26.4358 7.71568 26.4358 7.67234Z" fill="#FABE31"/>
<path d="M23.8201 10.2389C24.9206 9.54994 26.1608 8.94954 27.5107 8.45798C27.5095 7.81655 27.5078 7.17512 27.5061 6.53369C26.1561 7.02525 24.9155 7.62522 23.8154 8.3141C23.8171 8.956 23.8184 9.59744 23.8201 10.2389Z" fill="#EBF8FA"/>
<path d="M30.8031 10.3658C30.8269 10.3915 30.8384 10.4202 30.8384 10.4483L30.8333 8.52354C30.8333 8.4954 30.8218 8.4673 30.7984 8.441C30.7266 8.36493 30.5664 8.33679 30.4414 8.38382C30.4427 9.02572 30.4444 9.66715 30.4461 10.3086C30.571 10.2616 30.7317 10.2892 30.8031 10.3658Z" fill="#EBF8FA"/>
<path d="M30.8383 10.4483L30.8332 8.52356C30.8336 8.56691 30.8064 8.60978 30.7559 8.64161L30.7606 10.5659C30.8111 10.5341 30.8383 10.4917 30.8383 10.4483Z" fill="#FABE31"/>
<path d="M30.7031 8.66743L30.7082 10.5922L30.7609 10.5659L30.7562 8.6416L30.7031 8.66743Z" fill="#FABE31"/>
<path d="M20.8811 6.46414C19.7811 7.15307 18.8213 7.93144 18.0333 8.77898C17.9606 8.85552 18.0044 8.95653 18.1264 9.00171C18.231 9.04137 18.3623 9.02754 18.4439 8.97635C18.4592 8.96709 18.4724 8.95605 18.4835 8.94405C19.2498 8.12097 20.1819 7.3656 21.2496 6.69654C22.3182 6.02744 23.5223 5.44456 24.8336 4.96684L24.8863 4.94101C24.9696 4.88888 24.9892 4.80681 24.9288 4.74042C24.8574 4.66388 24.6967 4.63621 24.5718 4.68324C23.2218 5.1748 21.9811 5.77473 20.8811 6.46414Z" fill="#FABE31"/>
<path d="M20.9729 12.5539C21.7609 11.7063 22.7211 10.9279 23.8207 10.239C23.819 9.59754 23.8177 8.95611 23.816 8.31421C22.716 9.00362 21.7562 9.78156 20.9678 10.6291C20.9695 11.271 20.9712 11.9124 20.9729 12.5539Z" fill="#EBF8FA"/>
<path d="M20.9326 10.7103L20.9377 12.6345C20.9377 12.6908 20.9841 12.7461 21.0657 12.7765C21.1706 12.8162 21.3015 12.8024 21.3831 12.7512C21.3985 12.742 21.4121 12.7309 21.4231 12.7194C22.1895 11.8958 23.1212 11.1405 24.1889 10.4714C25.2574 9.80227 26.462 9.21986 27.7728 8.74167L27.7677 6.81738C26.4569 7.2951 25.2523 7.87751 24.1838 8.54661C23.1161 9.21571 22.1844 9.97151 21.418 10.7946C21.4069 10.8066 21.3934 10.8172 21.378 10.8269C21.2964 10.8781 21.1655 10.8919 21.0605 10.8523C20.9794 10.8218 20.9326 10.7665 20.9326 10.7103Z" fill="#FABE31"/>
<path d="M25.2893 11.1649C26.3893 10.4755 27.6291 9.87463 28.9778 9.38261C28.9761 8.74118 28.9744 8.09932 28.9727 7.45789C27.624 7.95034 26.3842 8.55074 25.2842 9.24014C25.2859 9.88157 25.2876 10.523 25.2893 11.1649Z" fill="#EBF8FA"/>
<path d="M19.4648 9.78477L19.4699 11.7091C19.4699 11.6814 19.481 11.6537 19.5035 11.6279L19.4988 9.70312C19.4759 9.72896 19.4648 9.7571 19.4648 9.78477Z" fill="#EBF8FA"/>
<path d="M19.9082 9.90185L19.9133 11.8261L19.9545 11.7929L19.9499 9.86865L19.9082 9.90185Z" fill="#FABE31"/>
<path d="M19.4648 9.78467L19.4699 11.709C19.4699 11.7657 19.5159 11.8205 19.5996 11.8524C19.7046 11.8902 19.8321 11.8768 19.9128 11.8261L19.9077 9.90178C19.827 9.95207 19.6995 9.9659 19.5945 9.92761C19.5112 9.89626 19.4648 9.8409 19.4648 9.78467Z" fill="#FABE31"/>
<path d="M22.3486 7.38954C21.2486 8.07847 20.2884 8.85642 19.4987 9.70301C19.429 9.78144 19.4698 9.88056 19.5944 9.92759C19.6993 9.96589 19.8269 9.95205 19.9076 9.90176L19.9493 9.86856C20.7152 9.04548 21.6473 8.28968 22.7155 7.62058C23.7836 6.95148 24.9877 6.36907 26.299 5.89135C26.3198 5.88398 26.3385 5.87473 26.3542 5.86458C26.4363 5.81339 26.455 5.73227 26.3972 5.66678C26.3228 5.5884 26.1647 5.56209 26.0372 5.60728C24.6889 6.10025 23.4491 6.70061 22.3486 7.38954Z" fill="#FABE31"/>
<path d="M22.4387 13.4779C23.2284 12.6312 24.189 11.8538 25.2891 11.1648C25.2874 10.523 25.2857 9.88154 25.284 9.24011C24.1839 9.92904 23.2233 10.7065 22.4336 11.5536C22.4353 12.1309 22.4374 12.9005 22.4387 13.4779Z" fill="#EBF8FA"/>
<path d="M22.4004 11.6348L22.4055 13.5595C22.4055 13.6158 22.4514 13.6711 22.5352 13.7025C22.6384 13.7417 22.7668 13.7292 22.8475 13.6785C22.8637 13.6684 22.8777 13.6564 22.8896 13.6435C23.6573 12.8213 24.5898 12.0659 25.6575 11.3969C26.7261 10.7278 27.9298 10.1449 29.2398 9.66621L29.2346 7.74146C27.9247 8.22012 26.7209 8.80299 25.6528 9.47257C24.5847 10.1412 23.6522 10.8965 22.8845 11.7192C22.873 11.7321 22.8586 11.7441 22.8424 11.7542C22.7621 11.8045 22.6333 11.8169 22.53 11.7782C22.4463 11.7464 22.4004 11.6915 22.4004 11.6348Z" fill="#FABE31"/>
<path d="M26.7551 12.0894C27.8555 11.4 29.0958 10.8001 30.4457 10.3085C30.444 9.66712 30.4424 9.02569 30.4411 8.38379C29.0911 8.87535 27.8504 9.47574 26.75 10.1647C26.7517 10.8061 26.7534 11.448 26.7551 12.0894Z" fill="#EBF8FA"/>
<path d="M20.9377 12.6349C20.9373 12.6068 20.9488 12.5791 20.9726 12.5538C20.9709 11.9124 20.9692 11.2709 20.9675 10.629C20.9437 10.6544 20.9326 10.6825 20.9326 10.7102C20.9339 11.2875 20.936 12.0571 20.9377 12.6349Z" fill="#EBF8FA"/>
<path d="M23.8158 8.31413C22.7158 9.00354 21.7561 9.78148 20.9676 10.629C20.8954 10.7056 20.9391 10.8066 21.0607 10.8522C21.1657 10.8918 21.2966 10.878 21.3782 10.8268C21.3935 10.8171 21.4071 10.8066 21.4182 10.7946C22.1845 9.97144 23.1162 9.21564 24.1839 8.54654C25.2525 7.87744 26.4571 7.29503 27.7679 6.81731L27.821 6.79101C27.9039 6.73893 27.9239 6.65686 27.8635 6.59089C27.7921 6.51435 27.6314 6.48668 27.5065 6.53371C26.1565 7.02527 24.9159 7.62525 23.8158 8.31413Z" fill="#FABE31"/>
<path d="M22.4004 11.6348L22.4055 13.5595C22.4055 13.5318 22.4161 13.5037 22.4391 13.4779L22.434 11.5536C22.4114 11.5789 22.4004 11.6071 22.4004 11.6348Z" fill="#EBF8FA"/>
<path d="M25.2843 9.24014C24.1843 9.92907 23.2237 10.7065 22.4339 11.5536C22.3647 11.6315 22.4055 11.7312 22.53 11.7782C22.6333 11.8169 22.7621 11.8044 22.8424 11.7542C22.8586 11.7441 22.873 11.7321 22.8845 11.7192C23.6522 10.8965 24.5847 10.1412 25.6528 9.47255C26.7209 8.80298 27.9247 8.2201 29.2346 7.74143L29.2899 7.71702C29.3732 7.66489 29.3932 7.58329 29.3328 7.5169C29.2585 7.43847 29.1003 7.41269 28.9729 7.45788C27.6242 7.95033 26.3843 8.55074 25.2843 9.24014Z" fill="#FABE31"/>
<path d="M23.9075 14.4043C24.6955 13.5563 25.6552 12.7783 26.7552 12.0894C26.7535 11.448 26.7518 10.8061 26.7501 10.1647C25.6502 10.8536 24.6904 11.632 23.9023 12.4795C23.904 13.1209 23.9057 13.7624 23.9075 14.4043Z" fill="#EBF8FA"/>
<path d="M23.8719 14.485C23.8719 14.4573 23.8833 14.4291 23.9072 14.4043C23.9054 13.7624 23.9037 13.1209 23.902 12.4795C23.8782 12.5049 23.8668 12.5325 23.8672 12.5607C23.8685 13.138 23.8706 13.9076 23.8719 14.485Z" fill="#EBF8FA"/>
<path d="M23.8672 12.5607L23.8718 14.4849C23.8723 14.5412 23.9186 14.5965 23.9998 14.627C24.1048 14.6666 24.2361 14.6528 24.3177 14.6016C24.333 14.5919 24.3466 14.5813 24.3577 14.5693C25.1236 13.7462 26.0553 12.9904 27.1234 12.3218C28.192 11.6522 29.3962 11.0698 30.7074 10.5921L30.7023 8.66736C29.3911 9.14508 28.1869 9.72796 27.1183 10.3971C26.0506 11.0662 25.1185 11.8215 24.3526 12.645C24.3415 12.657 24.3279 12.6677 24.3126 12.6769C24.231 12.7281 24.1001 12.7419 23.9951 12.7022C23.9135 12.6718 23.8672 12.6165 23.8672 12.5607Z" fill="#FABE31"/>
<path d="M26.75 10.1647C25.65 10.8537 24.6902 11.632 23.9022 12.4796C23.8299 12.5561 23.8737 12.6571 23.9953 12.7023C24.1003 12.742 24.2312 12.7281 24.3128 12.6769C24.3281 12.6677 24.3417 12.6571 24.3528 12.6451C25.1187 11.8215 26.0508 11.0662 27.1185 10.3971C28.1871 9.72802 29.3912 9.14514 30.7025 8.66742L30.7556 8.64159C30.8385 8.58903 30.8585 8.50739 30.7981 8.441C30.7263 8.36493 30.566 8.33679 30.4411 8.38382C29.0911 8.87538 27.8504 9.47578 26.75 10.1647Z" fill="#FABE31"/>
<path d="M11.6914 6.38391L11.6961 8.3082C15.9644 10.9994 20.2356 13.6919 24.5039 16.383L24.4988 14.4583C20.2305 11.7676 15.9597 9.07462 11.6914 6.38391Z" fill="#EBF8FA"/>
<path d="M24.499 14.4582L24.5041 16.383C25.4163 15.107 26.6722 13.9685 28.2084 13.0062C29.7445 12.0442 31.5603 11.2589 33.5937 10.6899L33.5885 8.76514C31.5552 9.33418 29.7394 10.1195 28.2033 11.0819C26.6672 12.0438 25.4112 13.1827 24.499 14.4582Z" fill="#848B8C"/>
<path d="M15.3935 3.00563C13.8574 3.96759 12.6022 5.10699 11.6914 6.38386C15.9597 9.07457 20.2305 11.7675 24.4988 14.4583C25.411 13.1828 26.667 12.0438 28.2031 11.0819C29.7392 10.1195 31.555 9.33418 33.5883 8.76514C29.3201 6.074 25.0492 3.38145 20.781 0.690308C18.7463 1.25846 16.9296 2.04372 15.3935 3.00563ZM22.5296 11.7782C22.405 11.7311 22.3642 11.6315 22.4335 11.5536C23.2232 10.7065 24.1838 9.92905 25.2839 9.24012C26.3839 8.55071 27.6237 7.95032 28.9724 7.45787C29.0999 7.41268 29.258 7.43846 29.3324 7.51689C29.3927 7.58328 29.3728 7.66488 29.2895 7.71701L29.2342 7.74142C27.9242 8.22008 26.7205 8.80296 25.6523 9.47254C24.5842 10.1412 23.6517 10.8965 22.884 11.7191C22.8726 11.732 22.8581 11.744 22.842 11.7542C22.7616 11.8044 22.6328 11.8169 22.5296 11.7782ZM18.1261 9.00171C18.0041 8.95652 17.9604 8.85552 18.033 8.77898C18.821 7.93144 19.7808 7.15307 20.8808 6.46414C21.9808 5.77473 23.2215 5.17481 24.5714 4.68325C24.6964 4.63622 24.8571 4.66389 24.9285 4.74043C24.9888 4.80682 24.9693 4.88889 24.886 4.94102L24.8333 4.96685C23.522 5.44457 22.3179 6.02745 21.2493 6.69655C20.1816 7.3656 19.2495 8.12097 18.4832 8.94406C18.4721 8.95605 18.4589 8.9671 18.4436 8.97636C18.362 9.02755 18.2307 9.04137 18.1261 9.00171ZM21.0606 10.8522C20.939 10.8066 20.8953 10.7056 20.9675 10.629C21.756 9.7815 22.7157 9.00355 23.8157 8.31415C24.9158 7.62526 26.1564 7.02529 27.5064 6.53374C27.6314 6.48671 27.792 6.51438 27.8634 6.59092C27.9238 6.65689 27.9038 6.73895 27.8209 6.79104L27.7678 6.81734C26.457 7.29506 25.2524 7.87747 24.1838 8.54657C23.1161 9.21567 22.1844 9.97147 21.4181 10.7946C21.407 10.8066 21.3934 10.8172 21.3781 10.8268C21.2965 10.878 21.1656 10.8919 21.0606 10.8522ZM13.7252 6.22709C13.6007 6.18006 13.5599 6.0809 13.6292 6.00251C14.4202 5.15449 15.3808 4.37566 16.4825 3.68582C17.5812 2.99778 18.8198 2.39786 20.168 1.90725C20.2955 1.86159 20.4537 1.88789 20.528 1.96627C20.5854 2.03129 20.5654 2.11383 20.4842 2.16502C20.4685 2.1747 20.4503 2.18344 20.4298 2.19085C19.1186 2.6681 17.914 3.25098 16.8459 3.92008C15.7777 4.58918 14.8456 5.3445 14.0797 6.16806L14.0381 6.20078C13.9573 6.25154 13.8302 6.26539 13.7252 6.22709ZM16.6597 8.07715C16.5356 8.03054 16.4948 7.93096 16.5641 7.85305C17.3547 7.00503 18.3157 6.2262 19.4174 5.53632C20.5157 4.84786 21.7547 4.24841 23.103 3.75728C23.2305 3.71209 23.3886 3.73792 23.4626 3.8163C23.5204 3.88179 23.5004 3.96433 23.4192 4.01505C23.4031 4.0252 23.3852 4.03399 23.3644 4.04088C22.0535 4.5186 20.849 5.10148 19.7808 5.77058C18.7127 6.43968 17.7806 7.195 17.0146 8.01814L16.973 8.05134C16.8922 8.10205 16.7651 8.11587 16.6597 8.07715ZM23.9956 12.7023C23.874 12.6571 23.8302 12.5561 23.9025 12.4795C24.6905 11.632 25.6503 10.8536 26.7503 10.1647C27.8507 9.47576 29.0914 8.87536 30.4413 8.3838C30.5663 8.33677 30.7265 8.36491 30.7984 8.44098C30.8587 8.50737 30.8388 8.58901 30.7559 8.64157L30.7028 8.6674C29.3915 9.14512 28.1873 9.728 27.1188 10.3971C26.0511 11.0662 25.119 11.8215 24.353 12.6451C24.342 12.6571 24.3283 12.6677 24.3131 12.6769C24.2314 12.7281 24.1005 12.7419 23.9956 12.7023ZM15.1912 7.15118C15.0667 7.10462 15.0259 7.00504 15.0981 6.92849C15.8862 6.0809 16.8463 5.303 17.9459 4.61407C19.0463 3.92466 20.2871 3.32474 21.637 2.83318C21.762 2.78615 21.9197 2.81198 21.994 2.89036C22.0544 2.95675 22.0344 3.03839 21.9515 3.09048L21.8958 3.11494C20.5858 3.5936 19.3821 4.17644 18.314 4.84554C17.2459 5.51464 16.3133 6.26996 15.5461 7.09215C15.5342 7.10556 15.5202 7.11708 15.5036 7.12766C15.4233 7.17795 15.2945 7.19041 15.1912 7.15118ZM19.5947 9.92764C19.4701 9.88061 19.4293 9.7815 19.499 9.70306C20.2888 8.85646 21.2489 8.07852 22.3489 7.38959C23.4494 6.70066 24.6893 6.10031 26.0375 5.60734C26.165 5.56215 26.3231 5.58845 26.3975 5.66684C26.4553 5.73233 26.4366 5.81346 26.3545 5.86464C26.3388 5.87479 26.3201 5.88405 26.2993 5.89141C24.9881 6.36913 23.7839 6.95154 22.7158 7.62064C21.6476 8.28974 20.7155 9.04554 19.9496 9.86862L19.9079 9.90182C19.8272 9.95211 19.6997 9.96593 19.5947 9.92764Z" fill="#EBF8FA"/>
<path d="M11.0832 9.52509C11.2107 9.4799 11.3684 9.50573 11.4428 9.58411L11.4377 7.65982C11.3633 7.58144 11.2056 7.55513 11.0781 7.60032C11.0794 8.24175 11.0815 8.88319 11.0832 9.52509Z" fill="#EBF8FA"/>
<path d="M11.4435 9.5842C11.466 9.61003 11.477 9.63812 11.477 9.6658L11.472 7.74108C11.472 7.71341 11.4609 7.68527 11.4384 7.65991C11.4401 8.23722 11.2454 9.04835 11.4435 9.5842Z" fill="#EBF8FA"/>
<path d="M12.909 10.5083C12.9323 10.5346 12.9438 10.5631 12.9438 10.5908L12.9387 8.66609C12.9387 8.63842 12.9272 8.61028 12.9039 8.58398C12.9051 9.16133 12.7075 9.97431 12.909 10.5083Z" fill="#EBF8FA"/>
<path d="M7.39279 11.3055C8.49278 10.6171 9.73305 10.0167 11.0834 9.5251C11.0817 8.8832 11.0796 8.24177 11.0784 7.60034C9.72797 8.09237 8.4877 8.69229 7.3877 9.38123L7.39279 11.3055Z" fill="#EBF8FA"/>
<path d="M14.3779 11.4347C14.3762 10.7928 14.3745 10.1514 14.3728 9.50994C14.2989 9.43151 14.1412 9.40573 14.0137 9.45092C14.015 10.0924 14.0171 10.7338 14.0188 11.3752C14.1463 11.33 14.304 11.3563 14.3779 11.4347Z" fill="#EBF8FA"/>
<path d="M14.3782 11.4346C14.4008 11.46 14.4118 11.4881 14.4118 11.5162L14.4072 9.59149C14.4067 9.56382 14.3961 9.53568 14.3731 9.50989C14.3748 10.0872 14.1798 10.8988 14.3782 11.4346Z" fill="#EBF8FA"/>
<path d="M14.4113 11.5163L14.4066 9.59155C14.4066 9.63443 14.3803 9.67688 14.3305 9.70823C14.3144 9.71838 14.2961 9.72712 14.2744 9.73448L14.2796 11.6592C14.3008 11.6519 14.3195 11.6427 14.3357 11.6325C14.3854 11.6016 14.4117 11.5592 14.4113 11.5163Z" fill="#FABE31"/>
<path d="M15.4875 12.3016C15.612 12.2541 15.7727 12.2822 15.8441 12.3588L15.8395 10.4345C15.7676 10.3575 15.6074 10.3298 15.4824 10.3768C15.4841 11.0183 15.4858 11.6597 15.4875 12.3016Z" fill="#EBF8FA"/>
<path d="M15.8438 12.3587C15.8676 12.385 15.8787 12.4136 15.8791 12.4417L15.874 10.517C15.874 10.4888 15.8625 10.4607 15.8392 10.4344C15.8404 11.0118 15.6436 11.8238 15.8438 12.3587Z" fill="#EBF8FA"/>
<path d="M4.54806 13.619C5.33438 12.7723 6.2937 11.9944 7.3933 11.3055L7.38821 9.38123C6.2886 10.0697 5.32972 10.8476 4.54297 11.6942C4.54467 12.3357 4.54636 12.9771 4.54806 13.619Z" fill="#EBF8FA"/>
<path d="M11.4768 9.66581L11.4717 7.74109C11.4717 7.78397 11.4458 7.82637 11.3956 7.85772C11.3795 7.86787 11.3612 7.87666 11.3399 7.88449C10.0287 8.36221 8.8241 8.94462 7.7564 9.61324C6.68866 10.2823 5.75741 11.0372 4.99316 11.8598L4.99825 13.7846C5.76249 12.9619 6.69375 12.2071 7.76149 11.538C8.82919 10.8694 10.0338 10.2865 11.345 9.80877C11.3663 9.80136 11.3846 9.79262 11.4007 9.78247C11.4505 9.75112 11.4768 9.70873 11.4768 9.66581Z" fill="#FABE31"/>
<path d="M12.552 10.4511C12.677 10.404 12.8347 10.4303 12.909 10.5082L12.904 8.58395C12.8296 8.50557 12.6719 8.47926 12.5469 8.52634C11.197 9.01832 9.95626 9.61829 8.8567 10.3072C7.75709 10.9961 6.79778 11.7736 6.01103 12.6202C5.98552 12.647 5.97321 12.6765 5.97364 12.7051L5.9783 14.6298C5.9783 14.6008 5.99062 14.5717 6.01612 14.5449C6.80287 13.6983 7.76219 12.9204 8.8618 12.2315C9.9614 11.543 11.2021 10.9426 12.552 10.4511Z" fill="#EBF8FA"/>
<path d="M12.9439 10.5907L12.9388 8.66602C12.9388 8.7089 12.9124 8.7504 12.8631 8.78128C12.8465 8.7919 12.8274 8.80064 12.8057 8.80848C11.4962 9.28714 10.2924 9.87002 9.22474 10.5391C8.1566 11.2082 7.22492 11.9626 6.45898 12.7839L6.46407 14.7086C7.23001 13.8869 8.1617 13.1325 9.2294 12.4634C10.2975 11.7947 11.5009 11.2119 12.8108 10.7333C12.8325 10.7254 12.8516 10.7162 12.8682 10.7061C12.9175 10.6751 12.9439 10.6336 12.9439 10.5907Z" fill="#FABE31"/>
<path d="M10.3284 13.1561C11.4279 12.4672 12.6687 11.8672 14.019 11.3752C14.0173 10.7338 14.0152 10.0924 14.0139 9.45093C12.6636 9.94249 11.4233 10.5429 10.3232 11.2313C10.3249 11.8732 10.3267 12.5146 10.3284 13.1561Z" fill="#EBF8FA"/>
<path d="M17.3124 13.2846C17.3358 13.31 17.3469 13.3377 17.3469 13.3649L17.3418 11.4402C17.3418 11.4129 17.3307 11.3857 17.3073 11.3604C17.3082 11.6808 17.309 12.0018 17.3099 12.3223C17.3099 12.3606 17.3103 12.4108 17.3103 12.4486C17.3103 12.5238 17.3107 12.6239 17.3107 12.699C17.3112 12.7359 17.3112 12.7848 17.3112 12.8217C17.3116 12.8576 17.3116 12.906 17.3116 12.942C17.3116 12.9775 17.3116 13.0246 17.312 13.0601C17.312 13.1274 17.2886 13.2224 17.3124 13.2846Z" fill="#EBF8FA"/>
<path d="M7.48225 15.4691C8.269 14.6224 9.22832 13.845 10.3279 13.156C10.3262 12.5146 10.3245 11.8732 10.3228 11.2313C9.22322 11.9203 8.26429 12.6982 7.47754 13.5448C7.47924 14.1862 7.48055 14.8277 7.48225 15.4691Z" fill="#EBF8FA"/>
<path d="M7.92774 13.7099L7.93283 15.6347C8.69751 14.8125 9.62833 14.0571 10.6965 13.3885C11.7642 12.7194 12.9687 12.137 14.2796 11.6593L14.2745 9.7345C12.9636 10.2123 11.7591 10.7951 10.6914 11.4638C9.62366 12.1328 8.69238 12.8877 7.92774 13.7099Z" fill="#FABE31"/>
<path d="M11.7961 14.082C12.8957 13.3931 14.1368 12.7931 15.4868 12.3016C15.4851 11.6597 15.4834 11.0183 15.4817 10.3768C14.1317 10.8689 12.891 11.4683 11.791 12.1572C11.7927 12.7987 11.7944 13.4401 11.7961 14.082Z" fill="#EBF8FA"/>
<path d="M8.95138 16.3955C9.73813 15.5483 10.697 14.7704 11.7966 14.082C11.7949 13.4401 11.7932 12.7987 11.7915 12.1572C10.6919 12.8462 9.73304 13.6241 8.94629 14.4707C8.94799 15.1121 8.94968 15.7536 8.95138 16.3955Z" fill="#EBF8FA"/>
<path d="M15.8789 12.4417L15.8737 10.517C15.8737 10.5607 15.8465 10.6032 15.7959 10.635C15.7807 10.6447 15.7628 10.653 15.7432 10.6604C14.432 11.1381 13.2278 11.721 12.1601 12.3896C11.092 13.0587 10.1611 13.8136 9.39648 14.6357L9.40118 16.5605C10.1658 15.7383 11.0971 14.9835 12.1652 14.3144C13.2329 13.6457 14.4371 13.0629 15.7484 12.5851C15.7679 12.5777 15.7857 12.569 15.8011 12.5597C15.8516 12.528 15.8789 12.4855 15.8789 12.4417Z" fill="#FABE31"/>
<path d="M16.9534 13.2257C17.0809 13.18 17.2386 13.2063 17.313 13.2847C17.3113 12.6432 17.3096 12.0018 17.3079 11.3604C17.2335 11.282 17.0758 11.2557 16.9483 11.3009C15.5996 11.7939 14.3598 12.3943 13.2598 13.0827C13.2615 13.7246 13.2632 14.366 13.2649 15.0074C14.3649 14.3185 15.6047 13.7182 16.9534 13.2257Z" fill="#EBF8FA"/>
<path d="M17.3473 13.3649L17.3422 11.4402C17.3422 11.484 17.3141 11.5264 17.2627 11.5587L17.2678 13.4834C17.3192 13.4511 17.3473 13.4083 17.3473 13.3649Z" fill="#FABE31"/>
<path d="M17.209 11.585L17.2141 13.5093L17.2672 13.4835L17.2621 11.5587L17.209 11.585Z" fill="#FABE31"/>
<path d="M4.51154 13.7034C4.51154 13.6748 4.52299 13.6457 4.54767 13.619C4.54598 12.9771 4.54428 12.3356 4.54258 11.6942C4.5179 11.721 4.50645 11.75 4.50685 11.7786C4.50816 12.3559 4.51023 13.1261 4.51154 13.7034Z" fill="#EBF8FA"/>
<path d="M4.95117 11.8931L4.95631 13.8173L4.99835 13.7846L4.99326 11.8599L4.95117 11.8931Z" fill="#FABE31"/>
<path d="M4.50685 11.7787L4.51155 13.7034C4.51199 13.7597 4.55786 13.8141 4.64034 13.8455C4.74532 13.8838 4.87285 13.8695 4.95615 13.8173L4.95101 11.8931C4.8677 11.9452 4.74022 11.959 4.63524 11.9207C4.55276 11.8894 4.50685 11.8354 4.50685 11.7787Z" fill="#FABE31"/>
<path d="M7.38804 9.3812C6.28843 10.0697 5.32955 10.8476 4.5428 11.6942C4.47011 11.7745 4.51089 11.8736 4.63546 11.9206C4.74044 11.9589 4.86792 11.9451 4.95123 11.893L4.99332 11.8598C5.75757 11.0371 6.68882 10.2822 7.75656 9.61314C8.82426 8.94451 10.0288 8.36211 11.3401 7.88439C11.3613 7.87655 11.3796 7.86777 11.3958 7.85762C11.4778 7.80643 11.4957 7.72484 11.4383 7.65982C11.3639 7.58144 11.2062 7.55513 11.0787 7.60032C9.72831 8.09235 8.48804 8.69226 7.38804 9.3812Z" fill="#FABE31"/>
<path d="M18.4217 14.1517C18.5467 14.1046 18.7073 14.1328 18.7787 14.2093C18.777 13.5679 18.7757 12.926 18.774 12.2846C18.7022 12.208 18.542 12.1799 18.417 12.227C18.4187 12.8684 18.42 13.5102 18.4217 14.1517Z" fill="#EBF8FA"/>
<path d="M18.7791 14.2093C18.8029 14.2351 18.8144 14.2633 18.8144 14.2914L18.8093 12.3667C18.8093 12.339 18.7978 12.3104 18.7744 12.2845C18.7761 12.926 18.7774 13.5679 18.7791 14.2093Z" fill="#EBF8FA"/>
<path d="M18.8143 14.2913L18.8092 12.3666C18.8092 12.4099 18.782 12.4528 18.7314 12.4846L18.7365 14.4093C18.7871 14.3776 18.8143 14.3346 18.8143 14.2913Z" fill="#FABE31"/>
<path d="M18.6787 12.5109L18.6838 14.4352L18.7365 14.4093L18.7314 12.4846L18.6787 12.5109Z" fill="#FABE31"/>
<path d="M6.41992 12.819L6.42506 14.7433L6.46414 14.7087L6.45905 12.7839L6.41992 12.819Z" fill="#FABE31"/>
<path d="M5.97363 12.7051L5.97829 14.6298C5.97873 14.6851 6.02421 14.7386 6.10621 14.7695C6.21119 14.8078 6.34172 14.7953 6.42503 14.7433L6.41989 12.819C6.33658 12.8711 6.20653 12.8831 6.10112 12.8448C6.01908 12.8139 5.97363 12.7604 5.97363 12.7051Z" fill="#FABE31"/>
<path d="M19.8879 15.0758C20.0154 15.0306 20.1731 15.0568 20.2475 15.1352L20.2424 13.2105C20.168 13.1321 20.0103 13.1063 19.8828 13.1515C19.8845 13.7929 19.8862 14.4343 19.8879 15.0758Z" fill="#EBF8FA"/>
<path d="M20.2475 15.1352C20.2709 15.1615 20.282 15.1896 20.2824 15.2173L20.2773 13.2925C20.2773 13.2648 20.2658 13.2367 20.2424 13.2104C20.2441 13.7878 20.0465 14.6007 20.2475 15.1352Z" fill="#EBF8FA"/>
<path d="M7.44651 15.5539C7.44651 15.5253 7.458 15.4963 7.48224 15.4691C7.48054 14.8277 7.47924 14.1862 7.47754 13.5448C7.45291 13.5715 7.44141 13.6006 7.44141 13.6292C7.44311 14.2065 7.44525 14.9761 7.44651 15.5539Z" fill="#EBF8FA"/>
<path d="M7.88574 13.743L7.89084 15.6678L7.93249 15.6346L7.9274 13.7098L7.88574 13.743Z" fill="#FABE31"/>
<path d="M7.44141 13.6292L7.4465 15.5539C7.4465 15.6102 7.49242 15.6646 7.5749 15.6955C7.68027 15.7337 7.8078 15.7199 7.89111 15.6678L7.88602 13.7431C7.80271 13.7952 7.67519 13.8094 7.56977 13.7712C7.48733 13.7398 7.44184 13.6854 7.44141 13.6292Z" fill="#FABE31"/>
<path d="M10.3226 11.2313C9.22306 11.9202 8.26413 12.6981 7.47738 13.5448C7.40469 13.6245 7.44552 13.7242 7.56961 13.7712C7.67503 13.8094 7.80255 13.7952 7.88586 13.743L7.92751 13.7098C8.69215 12.8877 9.62344 12.1328 10.6911 11.4637C11.7588 10.795 12.9634 10.2122 14.2742 9.73443C14.2959 9.72706 14.3142 9.71833 14.3303 9.70818C14.4124 9.65652 14.4302 9.57535 14.3724 9.50991C14.2985 9.43148 14.1408 9.40522 14.0133 9.45089C12.6629 9.94245 11.4226 10.5428 10.3226 11.2313Z" fill="#FABE31"/>
<path d="M10.4168 17.3196C11.2048 16.4739 12.1646 15.6964 13.2641 15.0075C13.2624 14.3661 13.2607 13.7246 13.259 13.0828C12.1594 13.7717 11.1997 14.5491 10.4117 15.3949C10.3875 15.4216 10.3755 15.4506 10.376 15.4792L10.3806 17.404C10.3806 17.3754 10.3921 17.3464 10.4168 17.3196Z" fill="#EBF8FA"/>
<path d="M10.5049 15.6212L10.51 17.546C10.6137 17.5819 10.7434 17.5709 10.8254 17.5197C10.8415 17.5096 10.856 17.498 10.8679 17.4851C11.6325 16.6624 12.5634 15.9076 13.6315 15.2385C14.6992 14.5699 15.9034 13.9875 17.2146 13.5093L17.2095 11.585C15.8987 12.0627 14.6941 12.6451 13.6264 13.3142C12.5583 13.9833 11.6274 14.7381 10.8628 15.5603C10.8509 15.5733 10.8364 15.5853 10.8203 15.5949C10.7382 15.6466 10.609 15.6577 10.5049 15.6212Z" fill="#FABE31"/>
<path d="M14.7317 15.9321C15.8313 15.2436 17.072 14.6432 18.4219 14.1516C18.4202 13.5102 18.4189 12.8684 18.4172 12.2269C17.0669 12.719 15.8262 13.3189 14.7266 14.0078C14.7283 14.6492 14.73 15.2906 14.7317 15.9321Z" fill="#EBF8FA"/>
<path d="M21.3567 16.0022C21.4816 15.9552 21.6423 15.9828 21.7137 16.0594C21.712 15.4179 21.7103 14.7765 21.7086 14.1346C21.6372 14.0585 21.4765 14.0304 21.3516 14.0774C21.3533 14.7189 21.355 15.3603 21.3567 16.0022Z" fill="#EBF8FA"/>
<path d="M21.7138 16.0593C21.7376 16.0851 21.7487 16.1137 21.7491 16.1418L21.744 14.2171C21.744 14.1889 21.7325 14.1608 21.7087 14.1345C21.7096 14.4555 21.7104 14.7764 21.7113 15.0969V15.2233C21.7117 15.2984 21.7121 15.3985 21.7121 15.4732C21.7121 15.5101 21.7121 15.5594 21.7126 15.5963V15.7167C21.713 15.7522 21.713 15.7992 21.713 15.8347C21.7134 15.902 21.69 15.997 21.7138 16.0593Z" fill="#EBF8FA"/>
<path d="M21.7489 16.1418L21.7438 14.217C21.7438 14.2604 21.7166 14.3033 21.666 14.3351L21.6711 16.2594C21.7217 16.2276 21.7489 16.1852 21.7489 16.1418Z" fill="#FABE31"/>
<path d="M21.6133 14.3615L21.6184 16.2858L21.6711 16.2595L21.666 14.3352L21.6133 14.3615Z" fill="#FABE31"/>
<path d="M8.91427 16.4794C8.91427 16.4508 8.9262 16.4218 8.9517 16.3955C8.95 15.7536 8.94831 15.1121 8.94661 14.4707C8.9211 14.497 8.90918 14.526 8.90918 14.5547C8.91088 15.132 8.91301 15.9021 8.91427 16.4794Z" fill="#EBF8FA"/>
<path d="M9.35547 14.6689L9.36013 16.5937L9.40183 16.5605L9.39713 14.6357L9.35547 14.6689Z" fill="#FABE31"/>
<path d="M8.90918 14.5547L8.91427 16.4794C8.91471 16.5352 8.96106 16.5896 9.0418 16.6201C9.14678 16.6579 9.27727 16.6459 9.36014 16.5938L9.35548 14.669C9.27217 14.7211 9.14169 14.7336 9.03671 14.6953C8.95593 14.6653 8.90962 14.6109 8.90918 14.5547Z" fill="#FABE31"/>
<path d="M11.7918 12.1573C10.6922 12.8462 9.73332 13.6241 8.94657 14.4707C8.87088 14.5491 8.91467 14.6501 9.03667 14.6953C9.14165 14.7336 9.27214 14.7211 9.35544 14.669L9.39709 14.6358C10.1617 13.8136 11.0926 13.0588 12.1607 12.3897C13.2284 11.721 14.4326 11.1382 15.7438 10.6604C15.7634 10.6531 15.7813 10.6448 15.7965 10.6351C15.8795 10.5829 15.8998 10.5018 15.8395 10.4345C15.7676 10.3575 15.6074 10.3298 15.4825 10.3768C14.1325 10.8689 12.8918 11.4683 11.7918 12.1573Z" fill="#FABE31"/>
<path d="M11.886 18.2456C12.6727 17.3989 13.6321 16.621 14.7316 15.9321C14.7299 15.2906 14.7282 14.6492 14.7265 14.0078C13.627 14.6963 12.6676 15.4742 11.8809 16.3208C11.8826 16.9622 11.8843 17.6041 11.886 18.2456Z" fill="#EBF8FA"/>
<path d="M11.9707 16.5458L11.9754 18.47C12.083 18.5083 12.2121 18.4954 12.295 18.4438C12.3108 18.4341 12.3243 18.423 12.3358 18.411C13.1005 17.5884 14.0313 16.8335 15.0995 16.1644C16.1672 15.4958 17.3717 14.9134 18.683 14.4352L18.6779 12.5109C17.3666 12.9886 16.1621 13.571 15.0944 14.2401C14.0262 14.9088 13.0958 15.6641 12.3307 16.4863C12.3192 16.4987 12.3057 16.5093 12.2903 16.519C12.2075 16.5711 12.0778 16.5836 11.9707 16.5458Z" fill="#FABE31"/>
<path d="M16.1994 16.858C17.299 16.1691 18.5389 15.5687 19.8879 15.0758C19.8862 14.4343 19.8846 13.7929 19.8829 13.1515C18.5338 13.6439 17.2943 14.2443 16.1943 14.9333C16.196 15.5747 16.1977 16.2161 16.1994 16.858Z" fill="#EBF8FA"/>
<path d="M10.376 15.4792L10.3806 17.404C10.3811 17.4603 10.427 17.5146 10.5094 17.546L10.5043 15.6212C10.4219 15.5899 10.376 15.5355 10.376 15.4792Z" fill="#FABE31"/>
<path d="M13.2593 13.0827C12.1597 13.7716 11.2 14.5491 10.4119 15.3948C10.3392 15.475 10.3801 15.5742 10.5046 15.6212C10.6087 15.6576 10.7379 15.6466 10.82 15.5949C10.8361 15.5853 10.8506 15.5733 10.8625 15.5603C11.6271 14.7381 12.558 13.9833 13.6261 13.3142C14.6938 12.6451 15.8984 12.0627 17.2092 11.585L17.2624 11.5587C17.3457 11.5066 17.3678 11.4263 17.3074 11.3604C17.233 11.282 17.0754 11.2557 16.9478 11.3009C15.5992 11.7939 14.3593 12.3943 13.2593 13.0827Z" fill="#FABE31"/>
<path d="M13.3518 19.1696C14.1394 18.3239 15.0995 17.5464 16.1991 16.858C16.1974 16.2161 16.1957 15.5747 16.194 14.9332C15.0944 15.6222 14.1347 16.3992 13.3467 17.2453C13.3484 17.8868 13.3501 18.5282 13.3518 19.1696Z" fill="#EBF8FA"/>
<path d="M20.2828 15.2174L20.2777 13.2926C20.2777 13.3355 20.2513 13.377 20.202 13.4079C20.1854 13.4185 20.1659 13.4277 20.1446 13.4351C18.8346 13.9137 17.6309 14.4971 16.5632 15.1657C15.4955 15.8348 14.5638 16.5892 13.7979 17.411L13.803 19.3352C14.5685 18.5135 15.5002 17.7591 16.5683 17.0905C17.636 16.4214 18.8397 15.8385 20.1497 15.3598C20.171 15.352 20.1905 15.3433 20.2071 15.3326C20.2564 15.3018 20.2828 15.2602 20.2828 15.2174Z" fill="#FABE31"/>
<path d="M17.6672 17.7821C18.7668 17.0936 20.0067 16.4937 21.3566 16.0022C21.3549 15.3603 21.3532 14.7188 21.3515 14.0774C20.0015 14.569 18.7617 15.1689 17.6621 15.8573C17.6638 16.4988 17.6655 17.1407 17.6672 17.7821Z" fill="#EBF8FA"/>
<path d="M11.8488 18.3295C11.8488 18.3008 11.8607 18.2718 11.8858 18.2456C11.8841 17.6041 11.8824 16.9622 11.8807 16.3208C11.8556 16.3471 11.8438 16.3761 11.8438 16.4047C11.8455 16.9821 11.8471 17.7521 11.8488 18.3295Z" fill="#EBF8FA"/>
<path d="M11.8438 16.4047L11.8488 18.3294C11.8488 18.3857 11.8952 18.4401 11.9759 18.47L11.9712 16.5458C11.8905 16.5153 11.8438 16.461 11.8438 16.4047Z" fill="#FABE31"/>
<path d="M14.7265 14.0078C13.6269 14.6963 12.6676 15.4742 11.8808 16.3208C11.8056 16.3992 11.8494 16.5002 11.9713 16.5459C12.0784 16.5837 12.2081 16.5712 12.291 16.5191C12.3063 16.5094 12.3199 16.4988 12.3314 16.4864C13.0964 15.6642 14.0269 14.9089 15.095 14.2402C16.1627 13.5711 17.3673 12.9887 18.6785 12.511L18.7312 12.4847C18.8146 12.4321 18.8345 12.351 18.7742 12.2846C18.7023 12.208 18.5421 12.1799 18.4171 12.227C17.0668 12.719 15.8261 13.3189 14.7265 14.0078Z" fill="#FABE31"/>
<path d="M13.3156 19.254C13.3156 19.2259 13.3271 19.1969 13.3518 19.1697C13.3501 18.5282 13.3484 17.8868 13.3467 17.2454C13.322 17.2721 13.3105 17.3012 13.3105 17.3297C13.3122 17.9071 13.3144 18.6767 13.3156 19.254Z" fill="#EBF8FA"/>
<path d="M13.7578 17.4454L13.7629 19.3702L13.8025 19.3352L13.7973 17.4109L13.7578 17.4454Z" fill="#FABE31"/>
<path d="M13.3105 17.3297L13.3156 19.254C13.3161 19.3107 13.3616 19.3652 13.4444 19.396C13.5494 19.4343 13.6795 19.4223 13.7628 19.3702L13.7577 17.4455C13.6748 17.4976 13.5443 17.51 13.4393 17.4718C13.3569 17.4404 13.3109 17.386 13.3105 17.3297Z" fill="#FABE31"/>
<path d="M16.1949 14.9333C15.0953 15.6222 14.1351 16.3992 13.3475 17.2454C13.2748 17.3251 13.3156 17.4247 13.4401 17.4718C13.5451 17.51 13.6756 17.4976 13.7585 17.4455L13.798 17.4109C14.5639 16.5892 15.4956 15.8348 16.5634 15.1657C17.6311 14.497 18.8348 13.9137 20.1448 13.4351C20.166 13.4277 20.1856 13.4185 20.2022 13.4078C20.2833 13.3571 20.3025 13.2769 20.243 13.2105C20.1686 13.1321 20.0109 13.1063 19.8834 13.1515C18.5343 13.6439 17.2948 14.2443 16.1949 14.9333Z" fill="#FABE31"/>
<path d="M14.8205 20.096C15.609 19.248 16.5679 18.4705 17.6671 17.7821C17.6654 17.1406 17.6636 16.4987 17.6619 15.8573C16.5628 16.5462 15.6039 17.3237 14.8154 18.1713C14.8171 18.8127 14.8188 19.4541 14.8205 20.096Z" fill="#EBF8FA"/>
<path d="M14.7835 20.1799C14.7835 20.1514 14.7953 20.1223 14.8204 20.096C14.8187 19.4541 14.817 18.8127 14.8153 18.1713C14.7903 18.1976 14.7783 18.2266 14.7783 18.2552C14.78 18.8325 14.7818 19.6026 14.7835 20.1799Z" fill="#EBF8FA"/>
<path d="M14.7783 18.2552L14.7835 20.18C14.7835 20.2358 14.8298 20.2906 14.9106 20.3206L14.9054 18.3959C14.8247 18.3659 14.7783 18.3115 14.7783 18.2552Z" fill="#FABE31"/>
<path d="M14.9053 18.3959L14.9104 20.3206C15.0175 20.3584 15.1471 20.346 15.23 20.2939C15.2458 20.2841 15.2589 20.2736 15.2708 20.2611C16.0355 19.4389 16.9663 18.6841 18.0345 18.015C19.1022 17.3463 20.3063 16.7635 21.618 16.2857L21.6129 14.3615C20.3012 14.8387 19.0971 15.4216 18.0294 16.0902C16.9612 16.7593 16.0304 17.5142 15.2657 18.3368C15.2543 18.3488 15.2406 18.3599 15.2254 18.3696C15.142 18.4212 15.0128 18.4342 14.9053 18.3959Z" fill="#FABE31"/>
<path d="M17.6619 15.8573C16.5628 16.5463 15.6039 17.3237 14.8154 18.1713C14.7402 18.2497 14.7839 18.3507 14.9055 18.3959C15.0131 18.4342 15.1423 18.4212 15.2256 18.3696C15.2409 18.3599 15.2545 18.3488 15.266 18.3369C16.0306 17.5142 16.9615 16.7593 18.0296 16.0902C19.0973 15.4216 20.3015 14.8387 21.6131 14.3615L21.6659 14.3352C21.7492 14.2826 21.7687 14.201 21.7083 14.1346C21.637 14.0585 21.4763 14.0304 21.3513 14.0774C20.0014 14.569 18.7615 15.1689 17.6619 15.8573Z" fill="#FABE31"/>
<path d="M6.3062 8.69785C4.77053 9.65976 3.51537 10.7988 2.60449 12.0757C6.8728 14.7663 11.1436 17.4593 15.4119 20.1504C16.3241 18.8745 17.5797 17.736 19.1149 16.7745C20.6502 15.8126 22.4655 15.0278 24.4989 14.4583C20.2306 11.7676 15.9598 9.07462 11.6915 6.38391C9.6581 6.95111 7.84188 7.73594 6.3062 8.69785ZM7.56985 13.7712C7.44576 13.7242 7.40494 13.6246 7.47762 13.5448C8.26436 12.6981 9.2233 11.9203 10.3229 11.2313C11.4229 10.5429 12.6632 9.94246 14.0135 9.45091C14.141 9.40572 14.2987 9.4315 14.3727 9.50993C14.4305 9.57538 14.4126 9.65655 14.3306 9.7082C14.3144 9.71835 14.2962 9.72709 14.2745 9.73445C12.9637 10.2122 11.7591 10.7951 10.6914 11.4637C9.62368 12.1328 8.69239 12.8877 7.92775 13.7099L7.8861 13.7431C7.80279 13.7952 7.67527 13.8095 7.56985 13.7712ZM4.63539 11.9207C4.51082 11.8737 4.47004 11.7745 4.54273 11.6943C5.32948 10.8477 6.28836 10.0697 7.38797 9.38126C8.48796 8.69233 9.72824 8.0924 11.0786 7.60037C11.2061 7.55518 11.3638 7.58148 11.4382 7.65987C11.4956 7.72489 11.4778 7.80649 11.3957 7.85767C11.3796 7.86782 11.3613 7.87661 11.34 7.88444C10.0288 8.36216 8.82419 8.94457 7.75649 9.61319C6.68875 10.2823 5.7575 11.0371 4.99325 11.8598L4.95116 11.893C4.86785 11.9451 4.74037 11.959 4.63539 11.9207ZM13.4397 17.4718C13.3152 17.4247 13.2744 17.3251 13.3471 17.2453C14.1351 16.3992 15.0948 15.6222 16.1944 14.9332C17.2944 14.2443 18.5339 13.6439 19.883 13.1515C20.0105 13.1063 20.1682 13.1321 20.2426 13.2105C20.3021 13.2769 20.2829 13.3571 20.2017 13.4078C20.1852 13.4184 20.1656 13.4276 20.1444 13.4351C18.8344 13.9137 17.6307 14.497 16.563 15.1657C15.4952 15.8348 14.5635 16.5891 13.7976 17.4109L13.7581 17.4455C13.6752 17.4976 13.5447 17.51 13.4397 17.4718ZM9.03627 14.6953C8.91427 14.6501 8.87049 14.5491 8.94617 14.4707C9.73292 13.6241 10.6918 12.8462 11.7914 12.1573C12.8914 11.4683 14.1321 10.8689 15.4821 10.3768C15.607 10.3298 15.7672 10.3575 15.8391 10.4345C15.8994 10.5018 15.8791 10.583 15.7961 10.6351C15.7809 10.6448 15.763 10.6531 15.7434 10.6605C14.4322 11.1382 13.228 11.7211 12.1603 12.3897C11.0922 13.0588 10.1613 13.8136 9.39669 14.6358L9.35504 14.669C9.27173 14.7212 9.14125 14.7336 9.03627 14.6953ZM11.9712 16.5458C11.8492 16.5002 11.8054 16.3992 11.8806 16.3208C12.6674 15.4741 13.6268 14.6962 14.7263 14.0078C15.8259 13.3189 17.0666 12.7189 18.417 12.2269C18.5419 12.1799 18.7022 12.208 18.774 12.2845C18.8344 12.3509 18.8144 12.4321 18.7311 12.4847L18.6784 12.5109C17.3671 12.9886 16.1625 13.571 15.0948 14.2401C14.0267 14.9088 13.0963 15.6641 12.3312 16.4863C12.3197 16.4988 12.3061 16.5094 12.2908 16.5191C12.2079 16.5712 12.0783 16.5836 11.9712 16.5458ZM14.9057 18.3958C14.7841 18.3507 14.7404 18.2497 14.8156 18.1713C15.604 17.3237 16.563 16.5463 17.6621 15.8573C18.7617 15.1689 20.0015 14.5689 21.3515 14.0774C21.4764 14.0303 21.6371 14.0585 21.7085 14.1346C21.7689 14.2009 21.7493 14.2826 21.666 14.3351L21.6133 14.3614C20.3016 14.8387 19.0975 15.4216 18.0298 16.0902C16.9616 16.7593 16.0308 17.5141 15.2661 18.3368C15.2547 18.3488 15.241 18.3598 15.2258 18.3696C15.1424 18.4212 15.0132 18.4341 14.9057 18.3958ZM6.10134 12.8448C5.97725 12.7982 5.93599 12.6986 6.01124 12.6202C6.79799 11.7736 7.75731 10.9961 8.85691 10.3072C9.95647 9.61828 11.1972 9.01831 12.5471 8.52633C12.6721 8.47925 12.8298 8.50555 12.9042 8.58394C12.9637 8.65033 12.945 8.7306 12.8634 8.78132C12.8468 8.79194 12.8277 8.80068 12.806 8.80852C11.4964 9.28718 10.2927 9.87006 9.225 10.5391C8.15686 11.2082 7.22518 11.9627 6.45924 12.7839L6.42011 12.819C6.3368 12.8711 6.20675 12.8831 6.10134 12.8448ZM10.5048 15.6212C10.3803 15.5742 10.3395 15.4751 10.4121 15.3948C11.2002 14.5491 12.1599 13.7717 13.2595 13.0827C14.3595 12.3943 15.5994 11.7939 16.948 11.3009C17.0756 11.2557 17.2333 11.282 17.3076 11.3604C17.368 11.4264 17.3459 11.5066 17.2626 11.5587L17.2094 11.585C15.8986 12.0627 14.694 12.6451 13.6263 13.3142C12.5582 13.9833 11.6273 14.7382 10.8627 15.5604C10.8508 15.5733 10.8363 15.5853 10.8202 15.595C10.7381 15.6466 10.609 15.6577 10.5048 15.6212Z" fill="#EBF8FA"/>
<path d="M8.85698 10.3072C7.75737 10.9961 6.79806 11.7736 6.01131 12.6202C5.93606 12.6986 5.97732 12.7982 6.10141 12.8448C6.20683 12.8831 6.33688 12.8711 6.42018 12.819L6.45931 12.7839C7.22525 11.9627 8.15693 11.2082 9.22507 10.5391C10.2928 9.87008 11.4965 9.2872 12.806 8.80853C12.8277 8.80069 12.8469 8.79196 12.8634 8.78133C12.9451 8.73062 12.9637 8.65034 12.9042 8.58395C12.8298 8.50557 12.6721 8.47926 12.5472 8.52634C11.1972 9.01832 9.95654 9.6183 8.85698 10.3072Z" fill="#FABE31"/>
<path d="M2.60449 12.0757L2.60963 14C6.8779 16.6911 11.1487 19.3836 15.417 22.0748L15.4119 20.1505C11.1436 17.4593 6.8728 14.7664 2.60449 12.0757Z" fill="#B0BABB"/>
<path d="M15.4121 20.1504L15.4172 22.0747C16.3293 20.7988 17.5845 19.6607 19.1202 18.6988C20.6555 17.7373 22.4704 16.9525 24.5042 16.383L24.4991 14.4583C22.4657 15.0277 20.6504 15.8126 19.1151 16.7745C17.5798 17.7359 16.3242 18.8745 15.4121 20.1504Z" fill="#848B8C"/>
<path opacity="0.6" d="M15.8789 7.95791C15.8789 7.95791 16.1149 7.40569 17.5691 6.38379C18.9632 5.40395 20.2487 4.63762 20.3506 4.57546C22.5288 3.24511 23.1256 3.2301 23.1256 3.2301C23.593 3.36131 24.0819 3.73933 24.0515 4.06868C24.0515 4.06868 23.108 4.27843 21.9561 5.01519C19.3783 6.66394 17.045 8.6118 17.045 8.6118C16.4757 8.56313 15.9382 8.34545 15.8789 7.95791Z" fill="#FABE31"/>
<path opacity="0.6" d="M17.1758 8.8793C17.1758 8.8793 17.4118 8.32708 18.866 7.30518C20.2601 6.32534 21.5456 5.55901 21.6475 5.49685C23.8256 4.1665 24.4225 4.15149 24.4225 4.15149C24.8899 4.2827 25.3788 4.66072 25.3484 4.99007C25.3484 4.99007 24.4049 5.19982 23.253 5.93658C20.6752 7.58533 18.3419 9.53319 18.3419 9.53319C17.7726 9.48452 17.2351 9.26684 17.1758 8.8793Z" fill="#FABE31"/>
<path opacity="0.6" d="M18.8613 9.75393C18.8613 9.75393 19.0974 9.20171 20.5515 8.17981C21.9456 7.19997 23.2311 6.43364 23.333 6.37148C25.5112 5.04113 26.108 5.02612 26.108 5.02612C26.5755 5.15733 27.0643 5.53535 27.0339 5.8647C27.0339 5.8647 26.0904 6.07445 24.9385 6.81121C22.3607 8.45996 20.0274 10.4078 20.0274 10.4078C19.4582 10.3592 18.9206 10.1415 18.8613 9.75393Z" fill="#FABE31"/>
<path d="M27.6641 3.51793L30.8115 2.9472L29.6175 1.11548L27.6641 3.51793Z" fill="#FABE31"/>
<path d="M26.0071 2.86584L25.3453 0.230103L23.8467 1.37629L26.0071 2.86584Z" fill="#B78520"/>
<path d="M25.7659 2.67265L25.1323 0.365479L23.8467 1.37631L25.7659 2.67265Z" fill="#FABE31"/>
<path d="M26.6716 3.33962L29.0863 0.681273L26.2002 0.230103L26.6716 3.33962Z" fill="#B78520"/>
<path d="M26.6035 2.88988L28.7208 0.615283L26.2002 0.230103L26.6035 2.88988Z" fill="#FABE31"/>
</g>
<defs>
<clipPath id="clip0_104_326">
<rect width="96.8114" height="24.3909" fill="white"/>
</clipPath>
</defs>
</svg>
