<svg width="99" height="28" viewBox="0 0 99 28" fill="none" xmlns="http://www.w3.org/2000/svg">
<g clip-path="url(#clip0_104_490)">
<path d="M38.3828 9.32837C38.3516 9.01326 38.2174 8.76847 37.9805 8.59399C37.7435 8.41951 37.4219 8.33227 37.0156 8.33227C36.7396 8.33227 36.5065 8.37134 36.3164 8.44946C36.1263 8.52498 35.9805 8.63045 35.8789 8.76587C35.7799 8.90129 35.7305 9.05493 35.7305 9.22681C35.7253 9.37004 35.7552 9.49504 35.8203 9.60181C35.888 9.70858 35.9805 9.80103 36.0977 9.87915C36.2148 9.95467 36.3503 10.0211 36.5039 10.0784C36.6576 10.1331 36.8216 10.1799 36.9961 10.219L37.7148 10.3909C38.0638 10.469 38.3841 10.5732 38.6758 10.7034C38.9674 10.8336 39.2201 10.9937 39.4336 11.1838C39.6471 11.3739 39.8125 11.5979 39.9297 11.8557C40.0495 12.1135 40.1107 12.4091 40.1133 12.7424C40.1107 13.232 39.9857 13.6565 39.7383 14.0159C39.4935 14.3726 39.1393 14.65 38.6758 14.8479C38.2148 15.0432 37.6589 15.1409 37.0078 15.1409C36.362 15.1409 35.7995 15.0419 35.3203 14.844C34.8438 14.6461 34.4714 14.3531 34.2031 13.9651C33.9375 13.5745 33.7982 13.0914 33.7852 12.5159H35.4219C35.4401 12.7841 35.5169 13.0081 35.6523 13.1877C35.7904 13.3648 35.974 13.4989 36.2031 13.5901C36.4349 13.6786 36.6966 13.7229 36.9883 13.7229C37.2747 13.7229 37.5234 13.6812 37.7344 13.5979C37.9479 13.5146 38.1133 13.3987 38.2305 13.2502C38.3477 13.1018 38.4063 12.9312 38.4063 12.7385C38.4063 12.5588 38.3529 12.4078 38.2461 12.2854C38.1419 12.163 37.9883 12.0588 37.7852 11.9729C37.5846 11.887 37.3385 11.8088 37.0469 11.7385L36.1758 11.5198C35.5013 11.3557 34.9688 11.0992 34.5781 10.7502C34.1875 10.4013 33.9935 9.93123 33.9961 9.34009C33.9935 8.85571 34.1224 8.43254 34.3828 8.07056C34.6458 7.70858 35.0065 7.42603 35.4648 7.2229C35.9232 7.01978 36.444 6.91821 37.0273 6.91821C37.6211 6.91821 38.1393 7.01978 38.582 7.2229C39.0273 7.42603 39.3737 7.70858 39.6211 8.07056C39.8685 8.43254 39.9961 8.85181 40.0039 9.32837H38.3828ZM42.4473 15.0276H40.6348L43.3965 7.02759H45.5762L48.334 15.0276H46.5215L44.5176 8.85571H44.4551L42.4473 15.0276ZM42.334 11.8831H46.6152V13.2034H42.334V11.8831ZM50.9883 7.02759V15.0276H49.2969V7.02759H50.9883ZM52.3799 15.0276V7.02759H55.583C56.1715 7.02759 56.6624 7.11483 57.0557 7.28931C57.4489 7.46379 57.7445 7.70597 57.9424 8.01587C58.1403 8.32316 58.2393 8.67733 58.2393 9.07837C58.2393 9.39087 58.1768 9.66561 58.0518 9.90259C57.9268 10.137 57.7549 10.3297 57.5361 10.4807C57.32 10.6292 57.0726 10.7346 56.7939 10.7971V10.8752C57.0986 10.8883 57.3838 10.9742 57.6494 11.1331C57.9176 11.2919 58.1351 11.5146 58.3018 11.801C58.4684 12.0849 58.5518 12.4234 58.5518 12.8167C58.5518 13.2411 58.4463 13.62 58.2354 13.9534C58.027 14.2841 57.7184 14.5458 57.3096 14.7385C56.9007 14.9312 56.3968 15.0276 55.7979 15.0276H52.3799ZM54.0713 13.6448H55.4502C55.9215 13.6448 56.2653 13.5549 56.4814 13.3752C56.6976 13.193 56.8057 12.9508 56.8057 12.6487C56.8057 12.4273 56.7523 12.232 56.6455 12.0627C56.5387 11.8935 56.3864 11.7607 56.1885 11.6643C55.9932 11.568 55.7601 11.5198 55.4893 11.5198H54.0713V13.6448ZM54.0713 10.3752H55.3252C55.557 10.3752 55.7627 10.3349 55.9424 10.2542C56.1247 10.1708 56.2679 10.0536 56.3721 9.90259C56.4788 9.75155 56.5322 9.57056 56.5322 9.35962C56.5322 9.07056 56.4294 8.83748 56.2236 8.6604C56.0205 8.48332 55.7314 8.39477 55.3564 8.39477H54.0713V10.3752ZM61.0313 15.0276H59.2188L61.9805 7.02759H64.1602L66.918 15.0276H65.1055L63.1016 8.85571H63.0391L61.0313 15.0276ZM60.918 11.8831H65.1992V13.2034H60.918V11.8831ZM70.4268 7.02759H72.5127L74.7158 12.4026H74.8096L77.0127 7.02759H79.0986V15.0276H77.458V9.82056H77.3916L75.3213 14.9885H74.2041L72.1338 9.80103H72.0674V15.0276H70.4268V7.02759ZM81.8711 15.0276H80.0586L82.8203 7.02759H85L87.7578 15.0276H85.9453L83.9414 8.85571H83.8789L81.8711 15.0276ZM81.7578 11.8831H86.0391V13.2034H81.7578V11.8831ZM90.4121 7.02759V15.0276H88.7207V7.02759H90.4121ZM96.1436 9.32837C96.1123 9.01326 95.9782 8.76847 95.7412 8.59399C95.5042 8.41951 95.1826 8.33227 94.7764 8.33227C94.5003 8.33227 94.2673 8.37134 94.0771 8.44946C93.887 8.52498 93.7412 8.63045 93.6396 8.76587C93.5407 8.90129 93.4912 9.05493 93.4912 9.22681C93.486 9.37004 93.516 9.49504 93.5811 9.60181C93.6488 9.70858 93.7412 9.80103 93.8584 9.87915C93.9756 9.95467 94.111 10.0211 94.2646 10.0784C94.4183 10.1331 94.5824 10.1799 94.7568 10.219L95.4756 10.3909C95.8245 10.469 96.1449 10.5732 96.4365 10.7034C96.7282 10.8336 96.9808 10.9937 97.1943 11.1838C97.4079 11.3739 97.5732 11.5979 97.6904 11.8557C97.8102 12.1135 97.8714 12.4091 97.874 12.7424C97.8714 13.232 97.7464 13.6565 97.499 14.0159C97.2542 14.3726 96.9001 14.65 96.4365 14.8479C95.9756 15.0432 95.4196 15.1409 94.7686 15.1409C94.1227 15.1409 93.5602 15.0419 93.0811 14.844C92.6045 14.6461 92.2321 14.3531 91.9639 13.9651C91.6982 13.5745 91.5589 13.0914 91.5459 12.5159H93.1826C93.2008 12.7841 93.2777 13.0081 93.4131 13.1877C93.5511 13.3648 93.7347 13.4989 93.9639 13.5901C94.1956 13.6786 94.4574 13.7229 94.749 13.7229C95.0355 13.7229 95.2842 13.6812 95.4951 13.5979C95.7087 13.5146 95.874 13.3987 95.9912 13.2502C96.1084 13.1018 96.167 12.9312 96.167 12.7385C96.167 12.5588 96.1136 12.4078 96.0068 12.2854C95.9027 12.163 95.749 12.0588 95.5459 11.9729C95.3454 11.887 95.0993 11.8088 94.8076 11.7385L93.9365 11.5198C93.262 11.3557 92.7295 11.0992 92.3389 10.7502C91.9482 10.4013 91.7542 9.93123 91.7568 9.34009C91.7542 8.85571 91.8831 8.43254 92.1436 8.07056C92.4066 7.70858 92.7673 7.42603 93.2256 7.2229C93.6839 7.01978 94.2048 6.91821 94.7881 6.91821C95.3818 6.91821 95.9001 7.01978 96.3428 7.2229C96.7881 7.42603 97.1344 7.70858 97.3818 8.07056C97.6292 8.43254 97.7568 8.85181 97.7646 9.32837H96.1436Z" fill="#BEC0C3"/>
<path d="M39.0537 10.0548L38.8547 10.0745L38.8726 10.2548H39.0537V10.0548ZM36.9873 9.1759L37.0611 9.36179L37.0633 9.36089L36.9873 9.1759ZM36.5498 9.49231L36.3898 9.3723L36.3883 9.37431L36.5498 9.49231ZM36.4014 9.95325L36.6014 9.96052V9.95325H36.4014ZM36.4912 10.3282L36.3204 10.4324L36.3223 10.4354L36.4912 10.3282ZM36.7686 10.6056L36.6576 10.772L36.6602 10.7737L36.7686 10.6056ZM37.1748 10.8048L37.1049 10.9922L37.1077 10.9932L37.1748 10.8048ZM37.667 10.9454L37.7135 10.7509L37.7107 10.7503L37.667 10.9454ZM38.3857 11.1173L38.3392 11.3118L38.342 11.3125L38.3857 11.1173ZM39.3467 11.4298L39.2651 11.6124L39.2651 11.6124L39.3467 11.4298ZM40.1045 11.9103L40.2375 11.7609L40.2375 11.7609L40.1045 11.9103ZM40.6006 12.5822L40.4185 12.6649L40.4192 12.6664L40.6006 12.5822ZM40.7842 13.4689L40.9842 13.4699L40.9842 13.4673L40.7842 13.4689ZM40.4092 14.7423L40.2444 14.6289L40.2443 14.6292L40.4092 14.7423ZM39.3467 15.5743L39.4247 15.7585L39.4252 15.7583L39.3467 15.5743ZM35.9912 15.5704L35.9145 15.7551L35.9149 15.7553L35.9912 15.5704ZM34.874 14.6915L34.7086 14.804L34.7095 14.8053L34.874 14.6915ZM34.4561 13.2423V13.0423H34.2515L34.2561 13.2468L34.4561 13.2423ZM36.0928 13.2423L36.2923 13.2287L36.2796 13.0423H36.0928V13.2423ZM36.3232 13.9142L36.1635 14.0346L36.1655 14.0371L36.3232 13.9142ZM36.874 14.3165L36.8001 14.5024L36.8026 14.5034L36.874 14.3165ZM38.4053 14.3243L38.3326 14.138L38.3318 14.1383L38.4053 14.3243ZM38.9014 13.9767L39.0583 14.1006L39.0583 14.1006L38.9014 13.9767ZM38.917 13.0118L38.7647 13.1415L38.7663 13.1433L38.917 13.0118ZM38.4561 12.6993L38.3773 12.8832L38.3781 12.8835L38.4561 12.6993ZM37.7178 12.465L37.6691 12.659L37.6709 12.6594L37.7178 12.465ZM36.8467 12.2462L36.8954 12.0522L36.894 12.0519L36.8467 12.2462ZM35.249 11.4767L35.1158 11.6258L35.1158 11.6258L35.249 11.4767ZM34.667 10.0665L34.867 10.0674L34.867 10.0655L34.667 10.0665ZM35.0537 8.797L34.8919 8.67943L34.8914 8.6802L35.0537 8.797ZM36.1357 7.94934L36.0547 7.76649L36.1357 7.94934ZM39.2529 7.94934L39.1695 8.13112L39.1699 8.1313L39.2529 7.94934ZM40.292 8.797L40.1269 8.90985L40.1269 8.90985L40.292 8.797ZM40.6748 10.0548V10.2548H40.8781L40.8748 10.0515L40.6748 10.0548ZM39.2527 10.0351C39.2164 9.66841 39.0563 9.37021 38.7699 9.15938L38.5328 9.48149C38.7204 9.61961 38.8286 9.811 38.8547 10.0745L39.2527 10.0351ZM38.7699 9.15938C38.4877 8.95157 38.1196 8.85872 37.6865 8.85872V9.25872C38.066 9.25872 38.3411 9.34034 38.5328 9.48149L38.7699 9.15938ZM37.6865 8.85872C37.3928 8.85872 37.1322 8.90011 36.9113 8.99092L37.0633 9.36089C37.2226 9.29545 37.4281 9.25872 37.6865 9.25872V8.85872ZM36.9135 8.99003C36.6963 9.07631 36.5177 9.20181 36.3898 9.37231L36.7098 9.61231C36.7851 9.51198 36.8981 9.42654 37.0611 9.36177L36.9135 8.99003ZM36.3883 9.37431C36.2637 9.54487 36.2014 9.74007 36.2014 9.95325H36.6014C36.6014 9.82267 36.638 9.71058 36.7113 9.61031L36.3883 9.37431ZM36.2015 9.94598C36.1951 10.1225 36.2321 10.2874 36.3205 10.4324L36.662 10.2241C36.6201 10.1555 36.5972 10.0704 36.6012 9.96052L36.2015 9.94598ZM36.3223 10.4354C36.4066 10.5683 36.5198 10.6801 36.6576 10.772L36.8795 10.4392C36.7829 10.3748 36.7112 10.3018 36.6601 10.2211L36.3223 10.4354ZM36.6602 10.7737C36.7914 10.8582 36.9401 10.9307 37.1049 10.9922L37.2447 10.6174C37.1022 10.5643 36.9801 10.504 36.8769 10.4375L36.6602 10.7737ZM37.1077 10.9932C37.2697 11.0509 37.4416 11.0999 37.6233 11.1406L37.7107 10.7503C37.5434 10.7128 37.3872 10.6681 37.2419 10.6164L37.1077 10.9932ZM37.6205 11.14L38.3392 11.3118L38.4323 10.9228L37.7135 10.7509L37.6205 11.14ZM38.342 11.3125C38.6795 11.388 38.987 11.4883 39.2651 11.6124L39.4282 11.2472C39.123 11.1109 38.7899 11.0028 38.4294 10.9221L38.342 11.3125ZM39.2651 11.6124C39.5402 11.7352 39.775 11.8847 39.9715 12.0597L40.2375 11.7609C40.0069 11.5556 39.7365 11.3848 39.4282 11.2472L39.2651 11.6124ZM39.9715 12.0597C40.1644 12.2314 40.313 12.4327 40.4185 12.6649L40.7827 12.4994C40.6538 12.2159 40.4716 11.9694 40.2375 11.7609L39.9715 12.0597ZM40.4192 12.6664C40.5251 12.8942 40.5818 13.1608 40.5842 13.4704L40.9842 13.4673C40.9814 13.1103 40.9157 12.7857 40.782 12.4979L40.4192 12.6664ZM40.5842 13.4678C40.5818 13.9223 40.4664 14.3065 40.2444 14.6289L40.5739 14.8557C40.8468 14.4593 40.9814 13.9946 40.9842 13.4699L40.5842 13.4678ZM40.2443 14.6292C40.0243 14.9497 39.7026 15.2049 39.2681 15.3904L39.4252 15.7583C39.9178 15.548 40.3045 15.2484 40.5741 14.8555L40.2443 14.6292ZM39.2686 15.3902C38.8386 15.5724 38.3106 15.6673 37.6787 15.6673V16.0673C38.3489 16.0673 38.9329 15.9669 39.4247 15.7585L39.2686 15.3902ZM37.6787 15.6673C37.0529 15.6673 36.5174 15.5714 36.0676 15.3856L35.9149 15.7553C36.4234 15.9653 37.0129 16.0673 37.6787 16.0673V15.6673ZM36.0679 15.3857C35.6234 15.2011 35.2829 14.9313 35.0385 14.5778L34.7095 14.8053C35.0016 15.2278 35.4059 15.5439 35.9145 15.7551L36.0679 15.3857ZM35.0394 14.5791C34.7998 14.2267 34.6683 13.7832 34.656 13.2378L34.2561 13.2468C34.2698 13.8524 34.417 14.3751 34.7086 14.804L35.0394 14.5791ZM34.4561 13.4423H36.0928V13.0423H34.4561V13.4423ZM35.8932 13.2559C35.9136 13.5552 36.0005 13.8183 36.1635 14.0346L36.483 13.7938C36.3751 13.6507 36.3084 13.4659 36.2923 13.2287L35.8932 13.2559ZM36.1655 14.0371C36.3275 14.245 36.5413 14.3994 36.8001 14.5024L36.9479 14.1307C36.7485 14.0514 36.595 13.9376 36.481 13.7912L36.1655 14.0371ZM36.8026 14.5034C37.0608 14.602 37.3473 14.6493 37.6592 14.6493V14.2493C37.3877 14.2493 37.1508 14.2082 36.9454 14.1297L36.8026 14.5034ZM37.6592 14.6493C37.9644 14.6493 38.2392 14.605 38.4788 14.5104L38.3318 14.1383C38.1495 14.2103 37.9268 14.2493 37.6592 14.2493V14.6493ZM38.478 14.5107C38.7176 14.4171 38.9149 14.2823 39.0583 14.1006L38.7444 13.8528C38.6535 13.9679 38.52 14.0649 38.3326 14.138L38.478 14.5107ZM39.0583 14.1006C39.204 13.9162 39.2771 13.7017 39.2771 13.465H38.8771C38.8771 13.6136 38.8331 13.7403 38.7444 13.8528L39.0583 14.1006ZM39.2771 13.465C39.2771 13.2425 39.2097 13.0431 39.0677 12.8804L38.7663 13.1433C38.8378 13.2253 38.8771 13.3281 38.8771 13.465H39.2771ZM39.0693 12.8822C38.9388 12.7289 38.7557 12.6089 38.534 12.5151L38.3781 12.8835C38.5627 12.9616 38.6868 13.05 38.7647 13.1415L39.0693 12.8822ZM38.5348 12.5155C38.321 12.4239 38.0635 12.3426 37.7646 12.2705L37.6709 12.6594C37.9554 12.728 38.1901 12.8029 38.3773 12.8832L38.5348 12.5155ZM37.7665 12.271L36.8954 12.0522L36.798 12.4402L37.6691 12.6589L37.7665 12.271ZM36.894 12.0519C36.2414 11.8932 35.7417 11.6486 35.3823 11.3275L35.1158 11.6258C35.5376 12.0026 36.103 12.2712 36.7994 12.4405L36.894 12.0519ZM35.3823 11.3275C35.0401 11.0219 34.8646 10.6095 34.867 10.0674L34.467 10.0656C34.4642 10.7059 34.6767 11.2336 35.1158 11.6258L35.3823 11.3275ZM34.867 10.0655C34.8646 9.61951 34.9825 9.23845 35.2161 8.9138L34.8914 8.6802C34.6041 9.0795 34.4642 9.54479 34.467 10.0676L34.867 10.0655ZM35.2155 8.91456C35.4554 8.58439 35.7867 8.3228 36.2168 8.13219L36.0547 7.76649C35.5681 7.98213 35.178 8.28565 34.8919 8.67943L35.2155 8.91456ZM36.2168 8.13219C36.6458 7.94207 37.1383 7.84465 37.6982 7.84465V7.44465C37.0915 7.44465 36.5424 7.55036 36.0547 7.76649L36.2168 8.13219ZM37.6982 7.84465C38.2694 7.84465 38.7581 7.94233 39.1695 8.13112L39.3363 7.76756C38.8624 7.5501 38.3146 7.44465 37.6982 7.44465V7.84465ZM39.1699 8.1313C39.586 8.32111 39.9024 8.58136 40.1269 8.90985L40.4571 8.68415C40.1868 8.28867 39.8104 7.98382 39.3359 7.76738L39.1699 8.1313ZM40.1269 8.90985C40.3502 9.23668 40.4676 9.61712 40.4748 10.0581L40.8748 10.0515C40.8664 9.53938 40.7285 9.08127 40.4571 8.68415L40.1269 8.90985ZM40.6748 9.85481H39.0537V10.2548H40.6748V9.85481ZM43.1182 15.754V15.954H43.2634L43.3084 15.8159L43.1182 15.754ZM41.3057 15.754L41.1166 15.6888L41.025 15.954H41.3057V15.754ZM44.0674 7.75403V7.55403H43.9248L43.8783 7.68876L44.0674 7.75403ZM46.2471 7.75403L46.4362 7.68885L46.3897 7.55403H46.2471V7.75403ZM49.0049 15.754V15.954H49.2854L49.194 15.6888L49.0049 15.754ZM47.1924 15.754L47.0022 15.8158L47.047 15.954H47.1924V15.754ZM45.1885 9.58215L45.3787 9.52039L45.3338 9.38215H45.1885V9.58215ZM45.126 9.58215V9.38215H44.9807L44.9358 9.52028L45.126 9.58215ZM43.0049 12.6095V12.4095H42.8049V12.6095H43.0049ZM47.2861 12.6095H47.4861V12.4095H47.2861V12.6095ZM47.2861 13.9298V14.1298H47.4861V13.9298H47.2861ZM43.0049 13.9298H42.8049V14.1298H43.0049V13.9298ZM43.1182 15.554H41.3057V15.954H43.1182V15.554ZM41.4947 15.8193L44.2564 7.81929L43.8783 7.68876L41.1166 15.6888L41.4947 15.8193ZM44.0674 7.95403H46.2471V7.55403H44.0674V7.95403ZM46.058 7.81921L48.8158 15.8192L49.194 15.6888L46.4362 7.68885L46.058 7.81921ZM49.0049 15.554H47.1924V15.954H49.0049V15.554ZM47.3826 15.6923L45.3787 9.52039L44.9983 9.64392L47.0022 15.8158L47.3826 15.6923ZM45.1885 9.38215H45.126V9.78215H45.1885V9.38215ZM44.9358 9.52028L42.928 15.6922L43.3084 15.8159L45.3162 9.64402L44.9358 9.52028ZM43.0049 12.8095H47.2861V12.4095H43.0049V12.8095ZM47.0861 12.6095V13.9298H47.4861V12.6095H47.0861ZM47.2861 13.7298H43.0049V14.1298H47.2861V13.7298ZM43.2049 13.9298V12.6095H42.8049V13.9298H43.2049ZM51.6592 7.75403H51.8592V7.55403H51.6592V7.75403ZM51.6592 15.754V15.954H51.8592V15.754H51.6592ZM49.9678 15.754H49.7678V15.954H49.9678V15.754ZM49.9678 7.75403V7.55403H49.7678V7.75403H49.9678ZM51.4592 7.75403V15.754H51.8592V7.75403H51.4592ZM51.6592 15.554H49.9678V15.954H51.6592V15.554ZM50.1678 15.754V7.75403H49.7678V15.754H50.1678ZM49.9678 7.95403H51.6592V7.55403H49.9678V7.95403ZM53.0508 15.754H52.8508V15.954H53.0508V15.754ZM53.0508 7.75403V7.55403H52.8508V7.75403H53.0508ZM57.7266 8.01575L57.6454 8.19856L57.6454 8.19856L57.7266 8.01575ZM58.6133 8.74231L58.4447 8.84996L58.4451 8.8506L58.6133 8.74231ZM58.7227 10.629L58.8991 10.7231L58.8996 10.7223L58.7227 10.629ZM58.207 11.2072L58.3203 11.372L58.3207 11.3717L58.207 11.2072ZM57.4648 11.5236L57.4211 11.3284L57.2648 11.3634V11.5236H57.4648ZM57.4648 11.6017H57.2648V11.7933L57.4563 11.8015L57.4648 11.6017ZM58.3203 11.8595L58.2177 12.0311L58.2184 12.0316L58.3203 11.8595ZM58.9727 12.5275L58.7998 12.628L58.8002 12.6287L58.9727 12.5275ZM58.9062 14.6798L58.7372 14.5729L58.737 14.5732L58.9062 14.6798ZM57.9805 15.465L57.8952 15.2841L57.8952 15.2841L57.9805 15.465ZM54.7422 14.3712H54.5422V14.5712H54.7422V14.3712ZM57.1523 14.1017L57.2802 14.2555L57.2813 14.2546L57.1523 14.1017ZM57.3164 12.7892L57.1472 12.8959L57.1472 12.8959L57.3164 12.7892ZM56.8594 12.3907L56.7709 12.5701L56.7718 12.5706L56.8594 12.3907ZM54.7422 12.2462V12.0462H54.5422V12.2462H54.7422ZM54.7422 11.1017H54.5422V11.3017H54.7422V11.1017ZM56.6133 10.9806L56.6952 11.163L56.6964 11.1625L56.6133 10.9806ZM57.043 10.629L56.8796 10.5136L56.8783 10.5155L57.043 10.629ZM56.8945 9.38684L56.7631 9.5376L56.7641 9.53842L56.8945 9.38684ZM54.7422 9.12122V8.92122H54.5422V9.12122H54.7422ZM53.2508 15.754V7.75403H52.8508V15.754H53.2508ZM53.0508 7.95403H56.2539V7.55403H53.0508V7.95403ZM56.2539 7.95403C56.8242 7.95403 57.2853 8.03877 57.6454 8.19856L57.8077 7.83293C57.3813 7.64377 56.8607 7.55403 56.2539 7.55403V7.95403ZM57.6454 8.19856C58.009 8.35988 58.2713 8.57847 58.4447 8.84996L58.7818 8.63466C58.5594 8.28635 58.2306 8.02057 57.8077 7.83293L57.6454 8.19856ZM58.4451 8.8506C58.6203 9.12249 58.7102 9.4383 58.7102 9.80481H59.1102C59.1102 9.36924 59.0021 8.97671 58.7814 8.63401L58.4451 8.8506ZM58.7102 9.80481C58.7102 10.0902 58.6532 10.3319 58.5458 10.5357L58.8996 10.7223C59.0421 10.4522 59.1102 10.1444 59.1102 9.80481H58.7102ZM58.5462 10.5349C58.4362 10.7411 58.2859 10.9097 58.0934 11.0426L58.3207 11.3717C58.5657 11.2026 58.7591 10.9857 58.8991 10.7231L58.5462 10.5349ZM58.0938 11.0423C57.9005 11.1751 57.6771 11.271 57.4211 11.3284L57.5086 11.7187C57.8099 11.6511 58.0813 11.5361 58.3203 11.372L58.0938 11.0423ZM57.2648 11.5236V11.6017H57.6648V11.5236H57.2648ZM57.4563 11.8015C57.7273 11.8131 57.9801 11.8891 58.2177 12.0311L58.423 11.6878C58.1292 11.5122 57.8118 11.4163 57.4734 11.4019L57.4563 11.8015ZM58.2184 12.0316C58.4554 12.1719 58.6492 12.3692 58.7998 12.628L59.1455 12.4269C58.9628 12.1129 58.7217 11.8648 58.4222 11.6874L58.2184 12.0316ZM58.8002 12.6287C58.9456 12.8764 59.0227 13.1785 59.0227 13.5431H59.4227C59.4227 13.1212 59.333 12.7462 59.1451 12.4262L58.8002 12.6287ZM59.0227 13.5431C59.0227 13.9327 58.9264 14.274 58.7372 14.5729L59.0753 14.7868C59.308 14.419 59.4227 14.0024 59.4227 13.5431H59.0227ZM58.737 14.5732C58.552 14.8669 58.2751 15.105 57.8952 15.2841L58.0657 15.6459C58.5036 15.4395 58.8438 15.1542 59.0755 14.7864L58.737 14.5732ZM57.8952 15.2841C57.5202 15.4608 57.0474 15.554 56.4687 15.554V15.954C57.088 15.954 57.623 15.8545 58.0657 15.6459L57.8952 15.2841ZM56.4687 15.554H53.0508V15.954H56.4687V15.554ZM54.7422 14.5712H56.1211V14.1712H54.7422V14.5712ZM56.1211 14.5712C56.6101 14.5712 57.0108 14.4794 57.2802 14.2555L57.0245 13.9479C56.8616 14.0833 56.5748 14.1712 56.1211 14.1712V14.5712ZM57.2813 14.2546C57.5459 14.0314 57.6766 13.7316 57.6766 13.3751H57.2766C57.2766 13.6229 57.1911 13.8074 57.0234 13.9488L57.2813 14.2546ZM57.6766 13.3751C57.6766 13.1201 57.6146 12.887 57.4856 12.6825L57.1472 12.8959C57.2318 13.0299 57.2766 13.1874 57.2766 13.3751H57.6766ZM57.4856 12.6825C57.357 12.4786 57.1749 12.3219 56.9469 12.2109L56.7718 12.5706C56.9397 12.6523 57.0623 12.7612 57.1472 12.8959L57.4856 12.6825ZM56.9479 12.2114C56.7191 12.0986 56.4544 12.0462 56.1602 12.0462V12.4462C56.4076 12.4462 56.609 12.4902 56.7709 12.5701L56.9479 12.2114ZM56.1602 12.0462H54.7422V12.4462H56.1602V12.0462ZM54.5422 12.2462V14.3712H54.9422V12.2462H54.5422ZM54.7422 11.3017H55.9961V10.9017H54.7422V11.3017ZM55.9961 11.3017C56.2512 11.3017 56.4856 11.2572 56.6952 11.163L56.5313 10.7982C56.3816 10.8654 56.2045 10.9017 55.9961 10.9017V11.3017ZM56.6964 11.1625C56.9084 11.0656 57.0811 10.926 57.2076 10.7426L56.8783 10.5155C56.7965 10.6341 56.6827 10.7289 56.5301 10.7987L56.6964 11.1625ZM57.2063 10.7445C57.3402 10.5551 57.4031 10.3323 57.4031 10.0861H57.0031C57.0031 10.2617 56.9593 10.4009 56.8797 10.5136L57.2063 10.7445ZM57.4031 10.0861C57.4031 9.74305 57.278 9.45305 57.025 9.23526L56.7641 9.53842C56.9225 9.67479 57.0031 9.85094 57.0031 10.0861H57.4031ZM57.026 9.23609C56.7743 9.01673 56.4318 8.92122 56.0273 8.92122V9.32122C56.3729 9.32122 56.6085 9.40279 56.7631 9.5376L57.026 9.23609ZM56.0273 8.92122H54.7422V9.32122H56.0273V8.92122ZM54.5422 9.12122V11.1017H54.9422V9.12122H54.5422ZM61.7021 15.754V15.954H61.8474L61.8923 15.8159L61.7021 15.754ZM59.8896 15.754L59.7006 15.6888L59.609 15.954H59.8896V15.754ZM62.6514 7.75403V7.55403H62.5088L62.4623 7.68876L62.6514 7.75403ZM64.8311 7.75403L65.0201 7.68885L64.9737 7.55403H64.8311V7.75403ZM67.5889 15.754V15.954H67.8694L67.7779 15.6888L67.5889 15.754ZM65.7764 15.754L65.5861 15.8158L65.631 15.954H65.7764V15.754ZM63.7725 9.58215L63.9627 9.52039L63.9178 9.38215H63.7725V9.58215ZM63.71 9.58215V9.38215H63.5647L63.5198 9.52028L63.71 9.58215ZM61.5889 12.6095V12.4095H61.3889V12.6095H61.5889ZM65.8701 12.6095H66.0701V12.4095H65.8701V12.6095ZM65.8701 13.9298V14.1298H66.0701V13.9298H65.8701ZM61.5889 13.9298H61.3889V14.1298H61.5889V13.9298ZM61.7021 15.554H59.8896V15.954H61.7021V15.554ZM60.0787 15.8193L62.8404 7.81929L62.4623 7.68876L59.7006 15.6888L60.0787 15.8193ZM62.6514 7.95403H64.8311V7.55403H62.6514V7.95403ZM64.642 7.81921L67.3998 15.8192L67.7779 15.6888L65.0201 7.68885L64.642 7.81921ZM67.5889 15.554H65.7764V15.954H67.5889V15.554ZM65.9666 15.6923L63.9627 9.52039L63.5822 9.64392L65.5861 15.8158L65.9666 15.6923ZM63.7725 9.38215H63.71V9.78215H63.7725V9.38215ZM63.5198 9.52028L61.512 15.6922L61.8923 15.8159L63.9002 9.64402L63.5198 9.52028ZM61.5889 12.8095H65.8701V12.4095H61.5889V12.8095ZM65.6701 12.6095V13.9298H66.0701V12.6095H65.6701ZM65.8701 13.7298H61.5889V14.1298H65.8701V13.7298ZM61.7889 13.9298V12.6095H61.3889V13.9298H61.7889ZM71.0977 7.75403V7.55403H70.8977V7.75403H71.0977ZM73.1836 7.75403L73.3687 7.67818L73.3178 7.55403H73.1836V7.75403ZM75.3867 13.129L75.2017 13.2049L75.2525 13.329H75.3867V13.129ZM75.4805 13.129V13.329H75.6146L75.6655 13.2049L75.4805 13.129ZM77.6836 7.75403V7.55403H77.5494L77.4985 7.67818L77.6836 7.75403ZM79.7695 7.75403H79.9695V7.55403H79.7695V7.75403ZM79.7695 15.754V15.954H79.9695V15.754H79.7695ZM78.1289 15.754H77.9289V15.954H78.1289V15.754ZM78.1289 10.547H78.3289V10.347H78.1289V10.547ZM78.0625 10.547V10.347H77.9272L77.8768 10.4726L78.0625 10.547ZM75.9922 15.715V15.915H76.1275L76.1778 15.7893L75.9922 15.715ZM74.875 15.715L74.6892 15.7891L74.7395 15.915H74.875V15.715ZM72.8047 10.5275L72.9904 10.4533L72.9402 10.3275H72.8047V10.5275ZM72.7383 10.5275V10.3275H72.5383V10.5275H72.7383ZM72.7383 15.754V15.954H72.9383V15.754H72.7383ZM71.0977 15.754H70.8977V15.954H71.0977V15.754ZM71.0977 7.95403H73.1836V7.55403H71.0977V7.95403ZM72.9985 7.82988L75.2017 13.2049L75.5718 13.0532L73.3687 7.67818L72.9985 7.82988ZM75.3867 13.329H75.4805V12.929H75.3867V13.329ZM75.6655 13.2049L77.8687 7.82988L77.4985 7.67818L75.2954 13.0532L75.6655 13.2049ZM77.6836 7.95403H79.7695V7.55403H77.6836V7.95403ZM79.5695 7.75403V15.754H79.9695V7.75403H79.5695ZM79.7695 15.554H78.1289V15.954H79.7695V15.554ZM78.3289 15.754V10.547H77.9289V15.754H78.3289ZM78.1289 10.347H78.0625V10.747H78.1289V10.347ZM77.8768 10.4726L75.8065 15.6406L76.1778 15.7893L78.2482 10.6214L77.8768 10.4726ZM75.9922 15.515H74.875V15.915H75.9922V15.515ZM75.0608 15.6408L72.9904 10.4533L72.6189 10.6016L74.6892 15.7891L75.0608 15.6408ZM72.8047 10.3275H72.7383V10.7275H72.8047V10.3275ZM72.5383 10.5275V15.754H72.9383V10.5275H72.5383ZM72.7383 15.554H71.0977V15.954H72.7383V15.554ZM71.2977 15.754V7.75403H70.8977V15.754H71.2977ZM82.542 15.754V15.954H82.6872L82.7322 15.8159L82.542 15.754ZM80.7295 15.754L80.5404 15.6888L80.4489 15.954H80.7295V15.754ZM83.4912 7.75403V7.55403H83.3487L83.3022 7.68876L83.4912 7.75403ZM85.6709 7.75403L85.86 7.68885L85.8135 7.55403H85.6709V7.75403ZM88.4287 15.754V15.954H88.7092L88.6178 15.6888L88.4287 15.754ZM86.6162 15.754L86.426 15.8158L86.4709 15.954H86.6162V15.754ZM84.6123 9.58215L84.8025 9.52039L84.7576 9.38215H84.6123V9.58215ZM84.5498 9.58215V9.38215H84.4046L84.3596 9.52028L84.5498 9.58215ZM82.4287 12.6095V12.4095H82.2287V12.6095H82.4287ZM86.71 12.6095H86.91V12.4095H86.71V12.6095ZM86.71 13.9298V14.1298H86.91V13.9298H86.71ZM82.4287 13.9298H82.2287V14.1298H82.4287V13.9298ZM82.542 15.554H80.7295V15.954H82.542V15.554ZM80.9185 15.8193L83.6803 7.81929L83.3022 7.68876L80.5404 15.6888L80.9185 15.8193ZM83.4912 7.95403H85.6709V7.55403H83.4912V7.95403ZM85.4818 7.81921L88.2396 15.8192L88.6178 15.6888L85.86 7.68885L85.4818 7.81921ZM88.4287 15.554H86.6162V15.954H88.4287V15.554ZM86.8064 15.6923L84.8025 9.52039L84.4221 9.64392L86.426 15.8158L86.8064 15.6923ZM84.6123 9.38215H84.5498V9.78215H84.6123V9.38215ZM84.3596 9.52028L82.3518 15.6922L82.7322 15.8159L84.74 9.64402L84.3596 9.52028ZM82.4287 12.8095H86.71V12.4095H82.4287V12.8095ZM86.51 12.6095V13.9298H86.91V12.6095H86.51ZM86.71 13.7298H82.4287V14.1298H86.71V13.7298ZM82.6287 13.9298V12.6095H82.2287V13.9298H82.6287ZM91.083 7.75403H91.283V7.55403H91.083V7.75403ZM91.083 15.754V15.954H91.283V15.754H91.083ZM89.3916 15.754H89.1916V15.954H89.3916V15.754ZM89.3916 7.75403V7.55403H89.1916V7.75403H89.3916ZM90.883 7.75403V15.754H91.283V7.75403H90.883ZM91.083 15.554H89.3916V15.954H91.083V15.554ZM89.5916 15.754V7.75403H89.1916V15.754H89.5916ZM89.3916 7.95403H91.083V7.55403H89.3916V7.95403ZM96.8145 10.0548L96.6154 10.0745L96.6333 10.2548H96.8145V10.0548ZM94.748 9.1759L94.8219 9.36179L94.8241 9.36089L94.748 9.1759ZM94.3105 9.49231L94.1505 9.3723L94.1491 9.37431L94.3105 9.49231ZM94.1621 9.95325L94.3621 9.96052V9.95325H94.1621ZM94.252 10.3282L94.0812 10.4324L94.0831 10.4354L94.252 10.3282ZM94.5293 10.6056L94.4183 10.772L94.421 10.7737L94.5293 10.6056ZM94.9355 10.8048L94.8657 10.9922L94.8685 10.9932L94.9355 10.8048ZM95.4277 10.9454L95.4743 10.7509L95.4714 10.7503L95.4277 10.9454ZM96.1465 11.1173L96.1 11.3118L96.1028 11.3125L96.1465 11.1173ZM97.1074 11.4298L97.0259 11.6124L97.0259 11.6124L97.1074 11.4298ZM97.8652 11.9103L97.9982 11.7609L97.9982 11.7609L97.8652 11.9103ZM98.3613 12.5822L98.1792 12.6649L98.18 12.6664L98.3613 12.5822ZM98.5449 13.4689L98.7449 13.4699L98.7449 13.4673L98.5449 13.4689ZM98.1699 14.7423L98.0052 14.6289L98.005 14.6292L98.1699 14.7423ZM97.1074 15.5743L97.1855 15.7585L97.186 15.7583L97.1074 15.5743ZM93.752 15.5704L93.6752 15.7551L93.6756 15.7553L93.752 15.5704ZM92.6348 14.6915L92.4694 14.804L92.4702 14.8053L92.6348 14.6915ZM92.2168 13.2423V13.0423H92.0122L92.0168 13.2468L92.2168 13.2423ZM93.8535 13.2423L94.0531 13.2287L94.0404 13.0423H93.8535V13.2423ZM94.084 13.9142L93.9242 14.0346L93.9262 14.0371L94.084 13.9142ZM94.6348 14.3165L94.5608 14.5024L94.5634 14.5034L94.6348 14.3165ZM96.166 14.3243L96.0933 14.138L96.0925 14.1383L96.166 14.3243ZM96.6621 13.9767L96.8191 14.1006L96.8191 14.1006L96.6621 13.9767ZM96.6777 13.0118L96.5254 13.1415L96.527 13.1433L96.6777 13.0118ZM96.2168 12.6993L96.138 12.8832L96.1389 12.8835L96.2168 12.6993ZM95.4785 12.465L95.4298 12.659L95.4316 12.6594L95.4785 12.465ZM94.6074 12.2462L94.6561 12.0522L94.6547 12.0519L94.6074 12.2462ZM93.0098 11.4767L92.8765 11.6258L92.8765 11.6258L93.0098 11.4767ZM92.4277 10.0665L92.6277 10.0674L92.6277 10.0655L92.4277 10.0665ZM92.8145 8.797L92.6527 8.67943L92.6521 8.6802L92.8145 8.797ZM93.8965 7.94934L93.8154 7.76649L93.8965 7.94934ZM97.0137 7.94934L96.9303 8.13112L96.9307 8.1313L97.0137 7.94934ZM98.0527 8.797L97.8876 8.90985L97.8876 8.90985L98.0527 8.797ZM98.4355 10.0548V10.2548H98.6389L98.6355 10.0515L98.4355 10.0548ZM97.0135 10.0351C96.9771 9.66841 96.817 9.37021 96.5307 9.15938L96.2935 9.48149C96.4811 9.61961 96.5893 9.811 96.6154 10.0745L97.0135 10.0351ZM96.5307 9.15938C96.2484 8.95157 95.8803 8.85872 95.4473 8.85872V9.25872C95.8267 9.25872 96.1018 9.34034 96.2935 9.48149L96.5307 9.15938ZM95.4473 8.85872C95.1536 8.85872 94.893 8.90011 94.672 8.99092L94.8241 9.36089C94.9833 9.29545 95.1889 9.25872 95.4473 9.25872V8.85872ZM94.6742 8.99003C94.457 9.07631 94.2784 9.20181 94.1505 9.37231L94.4705 9.61231C94.5458 9.51198 94.6589 9.42654 94.8219 9.36177L94.6742 8.99003ZM94.1491 9.37431C94.0244 9.54487 93.9621 9.74007 93.9621 9.95325H94.3621C94.3621 9.82267 94.3988 9.71058 94.472 9.61031L94.1491 9.37431ZM93.9622 9.94598C93.9558 10.1225 93.9928 10.2874 94.0812 10.4324L94.4227 10.2241C94.3809 10.1555 94.358 10.0704 94.362 9.96052L93.9622 9.94598ZM94.0831 10.4354C94.1673 10.5683 94.2806 10.6801 94.4184 10.772L94.6402 10.4392C94.5436 10.3748 94.472 10.3018 94.4209 10.2211L94.0831 10.4354ZM94.421 10.7737C94.5521 10.8582 94.7008 10.9307 94.8657 10.9922L95.0054 10.6174C94.863 10.5643 94.7408 10.504 94.6376 10.4375L94.421 10.7737ZM94.8685 10.9932C95.0305 11.0509 95.2024 11.0999 95.384 11.1406L95.4714 10.7503C95.3041 10.7128 95.1479 10.6681 95.0026 10.6164L94.8685 10.9932ZM95.3812 11.14L96.1 11.3118L96.193 10.9228L95.4742 10.7509L95.3812 11.14ZM96.1028 11.3125C96.4403 11.388 96.7477 11.4883 97.0259 11.6124L97.189 11.2472C96.8838 11.1109 96.5506 11.0028 96.1902 10.9221L96.1028 11.3125ZM97.0259 11.6124C97.301 11.7352 97.5357 11.8847 97.7322 12.0597L97.9982 11.7609C97.7677 11.5556 97.4972 11.3848 97.189 11.2472L97.0259 11.6124ZM97.7322 12.0597C97.9252 12.2314 98.0737 12.4327 98.1793 12.6649L98.5434 12.4994C98.4146 12.2159 98.2324 11.9694 97.9982 11.7609L97.7322 12.0597ZM98.18 12.6664C98.2858 12.8942 98.3425 13.1608 98.3449 13.4704L98.7449 13.4673C98.7421 13.1103 98.6764 12.7857 98.5427 12.4979L98.18 12.6664ZM98.3449 13.4678C98.3425 13.9223 98.2271 14.3065 98.0052 14.6289L98.3347 14.8557C98.6075 14.4593 98.7421 13.9946 98.7449 13.4699L98.3449 13.4678ZM98.005 14.6292C97.7851 14.9497 97.4634 15.2049 97.0289 15.3904L97.186 15.7583C97.6786 15.548 98.0652 15.2484 98.3348 14.8555L98.005 14.6292ZM97.0294 15.3902C96.5994 15.5724 96.0714 15.6673 95.4395 15.6673V16.0673C96.1096 16.0673 96.6936 15.9669 97.1855 15.7585L97.0294 15.3902ZM95.4395 15.6673C94.8136 15.6673 94.2781 15.5714 93.8283 15.3856L93.6756 15.7553C94.1841 15.9653 94.7736 16.0673 95.4395 16.0673V15.6673ZM93.8287 15.3857C93.3841 15.2011 93.0436 14.9313 92.7993 14.5778L92.4702 14.8053C92.7624 15.2278 93.1667 15.5439 93.6752 15.7551L93.8287 15.3857ZM92.8002 14.5791C92.5605 14.2267 92.4291 13.7832 92.4167 13.2378L92.0168 13.2468C92.0305 13.8524 92.1777 14.3751 92.4694 14.804L92.8002 14.5791ZM92.2168 13.4423H93.8535V13.0423H92.2168V13.4423ZM93.654 13.2559C93.6743 13.5552 93.7613 13.8183 93.9243 14.0346L94.2437 13.7938C94.1359 13.6507 94.0692 13.4659 94.0531 13.2287L93.654 13.2559ZM93.9262 14.0371C94.0882 14.245 94.302 14.3994 94.5609 14.5024L94.7087 14.1307C94.5092 14.0514 94.3558 13.9376 94.2417 13.7912L93.9262 14.0371ZM94.5634 14.5034C94.8216 14.602 95.1081 14.6493 95.4199 14.6493V14.2493C95.1485 14.2493 94.9115 14.2082 94.7061 14.1297L94.5634 14.5034ZM95.4199 14.6493C95.7252 14.6493 95.9999 14.605 96.2395 14.5104L96.0925 14.1383C95.9103 14.2103 95.6876 14.2493 95.4199 14.2493V14.6493ZM96.2387 14.5107C96.4784 14.4171 96.6756 14.2823 96.8191 14.1006L96.5051 13.8528C96.4142 13.9679 96.2807 14.0649 96.0933 14.138L96.2387 14.5107ZM96.8191 14.1006C96.9647 13.9162 97.0379 13.7017 97.0379 13.465H96.6379C96.6379 13.6136 96.5939 13.7403 96.5051 13.8528L96.8191 14.1006ZM97.0379 13.465C97.0379 13.2425 96.9704 13.0431 96.8284 12.8804L96.527 13.1433C96.5986 13.2253 96.6379 13.3281 96.6379 13.465H97.0379ZM96.83 12.8822C96.6996 12.7289 96.5164 12.6089 96.2947 12.5151L96.1389 12.8835C96.3234 12.9616 96.4475 13.05 96.5254 13.1415L96.83 12.8822ZM96.2956 12.5155C96.0817 12.4239 95.8242 12.3426 95.5254 12.2705L95.4316 12.6594C95.7161 12.728 95.9508 12.8029 96.138 12.8832L96.2956 12.5155ZM95.5272 12.271L94.6561 12.0522L94.5587 12.4402L95.4298 12.6589L95.5272 12.271ZM94.6547 12.0519C94.0021 11.8932 93.5025 11.6486 93.143 11.3275L92.8765 11.6258C93.2983 12.0026 93.8637 12.2712 94.5602 12.4405L94.6547 12.0519ZM93.143 11.3275C92.8008 11.0219 92.6253 10.6095 92.6277 10.0674L92.2277 10.0656C92.2249 10.7059 92.4374 11.2336 92.8765 11.6258L93.143 11.3275ZM92.6277 10.0655C92.6253 9.61951 92.7432 9.23845 92.9768 8.9138L92.6521 8.6802C92.3648 9.0795 92.2249 9.54479 92.2277 10.0676L92.6277 10.0655ZM92.9763 8.91456C93.2162 8.58439 93.5474 8.3228 93.9775 8.13219L93.8154 7.76649C93.3289 7.98213 92.9388 8.28565 92.6527 8.67943L92.9763 8.91456ZM93.9775 8.13219C94.4065 7.94207 94.899 7.84465 95.459 7.84465V7.44465C94.8523 7.44465 94.3031 7.55036 93.8154 7.76649L93.9775 8.13219ZM95.459 7.84465C96.0301 7.84465 96.5188 7.94233 96.9303 8.13112L97.0971 7.76756C96.6231 7.5501 96.0753 7.44465 95.459 7.44465V7.84465ZM96.9307 8.1313C97.3468 8.32111 97.6631 8.58136 97.8876 8.90985L98.2179 8.68415C97.9476 8.28867 97.5712 7.98382 97.0967 7.76738L96.9307 8.1313ZM97.8876 8.90985C98.111 9.23668 98.2283 9.61712 98.2356 10.0581L98.6355 10.0515C98.6271 9.53938 98.4893 9.08127 98.2179 8.68415L97.8876 8.90985ZM98.4355 9.85481H96.8145V10.2548H98.4355V9.85481Z" fill="#474E56"/>
<path d="M13.3014 26.3C6.40966 32.164 6.65637 18.8939 6.65637 18.8939V0.508301C6.65637 0.508301 6.40966 13.584 13.3014 7.71998V26.3Z" fill="#787878"/>
<path d="M13.7445 6.69751L12.5947 6.77148V25.3797H13.7445V6.69751Z" fill="#787878"/>
<path d="M25.7181 18.8881L24.877 18.7898C24.877 18.7898 9.78638 23.5511 13.0647 26.1882L25.7181 18.8881Z" fill="#B8935D"/>
<path d="M25.7179 0.172967L24.8768 0.074707C24.8768 0.074707 9.97556 5.05705 12.9985 7.52125L25.7179 0.172967Z" fill="#AFAFAF"/>
<path d="M26.388 0.17299L13.4352 7.64609L13.0645 7.4731L26.0175 0L26.388 0.17299Z" fill="#132A3C"/>
<path d="M13.4352 26.3537L13.0645 26.1808V7.47314L13.4352 7.64613V26.3537Z" fill="#132A3C"/>
<path d="M26.3883 18.881L13.4355 26.3537V7.64607L26.3883 0.172974V18.881Z" fill="#1F4360"/>
<path d="M27.2102 1.51677C27.2102 1.51677 25.4923 7.56116 16.9116 8.32032C14.119 8.56724 13.3008 7.72001 13.3008 7.72001L26.3882 0.172974L27.2102 1.51677Z" fill="#AFAFAF"/>
<path d="M13.3008 26.3001C17.9417 28.1793 27.2102 20.0969 27.2102 20.0969V1.51685C27.2102 1.51685 17.9417 9.59884 13.3008 7.72009V26.3001Z" fill="#EAEAEA"/>
<path d="M17.1016 8.73946V9.86763C20.2469 8.94647 23.7731 6.45882 25.7187 4.95105V3.82324C23.7731 5.33065 20.2469 7.81829 17.1016 8.73946Z" fill="#B7B7B7"/>
<path d="M17.1016 10.914V12.0422C20.2469 11.121 23.7731 8.63334 25.7187 7.12597V5.9978C23.7731 7.50517 20.2469 9.99281 17.1016 10.914Z" fill="#B7B7B7"/>
<path d="M17.1016 13.0887V14.2168C20.2469 13.2957 23.7731 10.808 25.7187 9.30066V8.17249C23.7731 9.67986 20.2469 12.1675 17.1016 13.0887Z" fill="#B7B7B7"/>
<path d="M17.1016 15.2636V16.3918C20.2469 15.4703 23.7731 12.9826 25.7187 11.4752V10.347C23.7731 11.8544 20.2469 14.3421 17.1016 15.2636Z" fill="#B7B7B7"/>
<path d="M17.1016 19.4151V20.5433C20.2469 19.6217 23.7731 17.1341 25.7187 15.6267V14.4985C23.7731 16.0063 20.2469 18.4935 17.1016 19.4151Z" fill="#B7B7B7"/>
<path d="M17.1016 21.5897V22.7179C20.2469 21.7963 23.7731 19.309 25.7187 17.8013V16.6731C23.7731 18.1809 20.2469 20.6681 17.1016 21.5897Z" fill="#B7B7B7"/>
<path d="M17.1016 23.7644V24.8925C20.2469 23.971 23.7731 21.4837 25.7187 19.9759V18.8478C23.7731 20.3555 20.2469 22.8428 17.1016 23.7644Z" fill="#B7B7B7"/>
<path d="M13.3007 26.3C6.40892 32.164 2.94922 20.1574 2.94922 20.1574V1.77148C2.94922 1.77148 6.40892 13.584 13.3007 7.71998V26.3Z" fill="#AFAFAF"/>
<path d="M13.3011 26.3001C6.40929 32.1641 0 22.3783 0 22.3783V3.79822C0 3.79822 6.40928 13.584 13.3011 7.72006V26.3001Z" fill="#EAEAEA"/>
<path d="M10.7553 10.3173C6.91638 11.6701 3.48116 8.90542 1.5752 6.84546V7.96466C3.48116 10.025 6.91638 12.7897 10.7553 11.4365V10.3173Z" fill="#B7B7B7"/>
<path d="M10.7553 12.4918C6.91638 13.8446 3.48116 11.0799 1.5752 9.02002V10.1396C3.48116 12.1995 6.91638 14.9642 10.7553 13.6114V12.4918Z" fill="#B7B7B7"/>
<path d="M10.7553 14.6664C6.91638 16.0196 3.48116 13.2549 1.5752 11.1946V12.3142C3.48116 14.3741 6.91638 17.1388 10.7553 15.786V14.6664Z" fill="#B7B7B7"/>
<path d="M10.7553 16.841C6.91638 18.1942 3.48116 15.4295 1.5752 13.3691V14.4887C3.48116 16.5487 6.91638 19.3134 10.7553 17.9605V16.841Z" fill="#B7B7B7"/>
<path d="M10.7553 19.0156C6.91638 20.3688 3.48116 17.6041 1.5752 15.5438V16.6634C3.48116 18.7233 6.91638 21.488 10.7553 20.1352V19.0156Z" fill="#B7B7B7"/>
<path d="M10.7553 21.1902C6.91638 22.5434 3.48116 19.7787 1.5752 17.7188V18.8379C3.48116 20.8983 6.91638 23.663 10.7553 22.3097V21.1902Z" fill="#B7B7B7"/>
<path d="M10.7553 23.3651C6.91638 24.7179 3.48116 21.9532 1.5752 19.8933V21.0125C3.48116 23.0728 6.91638 25.8375 10.7553 24.4843V23.3651Z" fill="#B7B7B7"/>
<path d="M10.7553 25.5397C6.91638 26.8925 3.48116 24.1278 1.5752 22.0679V23.1871C3.48116 25.2474 6.91638 28.0121 10.7553 26.6589V25.5397Z" fill="#B7B7B7"/>
<path d="M13.4272 7.77086L13.3008 7.71997V26.3L13.4272 26.3536V7.77086Z" fill="#B7B7B7"/>
<path d="M33.951 21.8781L33.94 21.8969C33.6416 22.4138 33.1576 22.6933 32.8592 22.5211L28.0342 19.7372L29.1258 17.8463L33.951 20.6302C34.2493 20.8024 34.2493 21.3612 33.951 21.8781Z" fill="#FB4246"/>
<path d="M27.6434 16.9909L26.5518 18.8818L28.0333 19.7371L29.1249 17.8462L27.6434 16.9909Z" fill="#909090"/>
<path d="M19.1299 17.9094C19.1299 15.2769 20.9781 12.0759 23.258 10.7595C24.4725 10.0582 25.5609 10.0391 26.3164 10.5669L26.3203 10.5615L27.5469 11.2518L27.2007 12.072H26.8795C26.9237 12.3255 26.9501 12.5971 26.9501 12.8914C26.9501 15.5239 25.1019 18.7253 22.822 20.0413C22.5886 20.1763 22.3615 20.2796 22.1388 20.3653L21.5667 21.2763L20.7604 20.8106L20.3661 20.595C19.6036 20.17 19.1299 19.241 19.1299 17.9094Z" fill="#AD2E30"/>
<path d="M20.4395 18.6541C20.4395 21.2865 22.2877 22.3537 24.5677 21.0372C26.8476 19.7208 28.6958 16.5198 28.6958 13.8874C28.6958 11.2545 26.8476 10.1874 24.5677 11.5038C22.2877 12.8202 20.4395 16.0213 20.4395 18.6541Z" fill="#FB4246"/>
<path d="M21.8154 19.8601C22.3907 20.5844 23.4087 20.696 24.5674 20.0256C26.3636 18.991 27.8203 16.4665 27.8203 14.3933C27.8203 13.4702 27.5346 12.7959 27.0588 12.4191C27.3691 12.8163 27.5471 13.3915 27.5471 14.1201C27.5471 16.1934 26.0945 18.7178 24.2984 19.7525C23.3011 20.3277 22.4112 20.3277 21.8154 19.8601Z" fill="#AD2E30"/>
<path d="M21.3145 18.1468C21.3145 18.8751 21.4925 19.4542 21.8069 19.8518C21.8111 19.8518 21.8111 19.8557 21.8154 19.86C22.4111 20.3276 23.301 20.3276 24.2983 19.7524C26.0945 18.7178 27.5471 16.1934 27.5471 14.1201C27.5471 13.3915 27.369 12.8162 27.0587 12.419C26.4627 11.9432 25.5689 11.9389 24.5673 12.5141C22.7714 13.5531 21.3145 16.0732 21.3145 18.1468Z" fill="#3E86C1"/>
<path d="M24.7109 14.2368C24.7109 14.4516 24.7634 14.623 24.8563 14.7404C24.8575 14.7404 24.8575 14.7416 24.8589 14.7428C25.0348 14.8809 25.2977 14.8809 25.5922 14.7111C26.1227 14.4054 26.5517 13.6596 26.5517 13.0472C26.5517 12.8323 26.4993 12.6621 26.4075 12.5451C26.2315 12.4042 25.9675 12.4031 25.6717 12.5729C25.1412 12.8797 24.7109 13.6244 24.7109 14.2368Z" fill="#51AFFB"/>
<path d="M21.6524 18.0682C21.6524 18.7033 21.8075 19.2085 22.0816 19.5548C22.0853 19.5548 22.0853 19.5584 22.0889 19.5619C22.6083 19.9696 23.3841 19.9696 24.2535 19.4679C24.95 19.0669 25.5873 18.4087 26.0802 17.6424L22.4176 15.3907C21.9429 16.2497 21.6524 17.2038 21.6524 18.0682Z" fill="#2F6893"/>
</g>
<defs>
<clipPath id="clip0_104_490">
<rect width="99" height="28" fill="white"/>
</clipPath>
</defs>
</svg>
